<mxfile host="app.diagrams.net" modified="2023-11-27T19:46:41.520Z" agent="Mozilla/5.0 (Windows NT 10.0; Win64; x64) AppleWebKit/537.36 (KHTML, like Gecko) Chrome/119.0.0.0 Safari/537.36 Edg/119.0.0.0" etag="Tva2VP_0HgsI5pRzeGSE" version="22.1.4" type="device">
  <diagram name="Page-1" id="3ds_zpMaD_83Kz8hR5aB">
    <mxGraphModel dx="1002" dy="523" grid="1" gridSize="10" guides="1" tooltips="1" connect="1" arrows="1" fold="1" page="1" pageScale="1" pageWidth="850" pageHeight="1100" math="0" shadow="0">
      <root>
        <mxCell id="0" />
        <mxCell id="1" parent="0" />
        <mxCell id="6nUVU_7U9WkCYsa5ToyP-2" value="Create Jupyter Notebook" style="endArrow=classic;html=1;rounded=0;exitX=1;exitY=0.5;exitDx=0;exitDy=0;" parent="1" edge="1">
          <mxGeometry x="-0.0016" y="20" width="50" height="50" relative="1" as="geometry">
            <mxPoint x="110" y="260" as="sourcePoint" />
            <mxPoint x="250" y="259.8666666666667" as="targetPoint" />
            <Array as="points">
              <mxPoint x="140" y="259.5" />
            </Array>
            <mxPoint as="offset" />
          </mxGeometry>
        </mxCell>
        <mxCell id="6nUVU_7U9WkCYsa5ToyP-6" value="Using Python library download images of celebrities and store in S3" style="text;html=1;strokeColor=none;fillColor=none;align=center;verticalAlign=middle;whiteSpace=wrap;rounded=0;rotation=0;" parent="1" vertex="1">
          <mxGeometry x="305" y="170" width="120" height="30" as="geometry" />
        </mxCell>
        <mxCell id="6nUVU_7U9WkCYsa5ToyP-11" value="Python Library" style="whiteSpace=wrap;html=1;aspect=fixed;" parent="1" vertex="1">
          <mxGeometry x="250" y="30" width="80" height="80" as="geometry" />
        </mxCell>
        <mxCell id="6nUVU_7U9WkCYsa5ToyP-13" value="" style="endArrow=classic;html=1;rounded=0;entryX=0;entryY=0.5;entryDx=0;entryDy=0;" parent="1" edge="1">
          <mxGeometry width="50" height="50" relative="1" as="geometry">
            <mxPoint x="290" y="220" as="sourcePoint" />
            <mxPoint x="440" y="150" as="targetPoint" />
            <Array as="points">
              <mxPoint x="290" y="150" />
              <mxPoint x="360" y="150" />
            </Array>
          </mxGeometry>
        </mxCell>
        <mxCell id="6nUVU_7U9WkCYsa5ToyP-18" value="High Quality Images" style="whiteSpace=wrap;html=1;aspect=fixed;fillColor=#d5e8d4;strokeColor=#82b366;" parent="1" vertex="1">
          <mxGeometry x="630" y="340" width="80" height="80" as="geometry" />
        </mxCell>
        <mxCell id="6nUVU_7U9WkCYsa5ToyP-25" value="" style="endArrow=none;html=1;rounded=0;entryX=0.5;entryY=1;entryDx=0;entryDy=0;" parent="1" target="6nUVU_7U9WkCYsa5ToyP-11" edge="1">
          <mxGeometry width="50" height="50" relative="1" as="geometry">
            <mxPoint x="290" y="160" as="sourcePoint" />
            <mxPoint x="470" y="250" as="targetPoint" />
          </mxGeometry>
        </mxCell>
        <mxCell id="6nUVU_7U9WkCYsa5ToyP-26" value="" style="endArrow=classic;html=1;rounded=0;entryX=0;entryY=0.5;entryDx=0;entryDy=0;exitX=0.5;exitY=0;exitDx=0;exitDy=0;" parent="1" target="6nUVU_7U9WkCYsa5ToyP-18" edge="1">
          <mxGeometry width="50" height="50" relative="1" as="geometry">
            <mxPoint x="480" y="420" as="sourcePoint" />
            <mxPoint x="470" y="250" as="targetPoint" />
            <Array as="points">
              <mxPoint x="480" y="380" />
            </Array>
          </mxGeometry>
        </mxCell>
        <mxCell id="6nUVU_7U9WkCYsa5ToyP-28" value="Call Rekognition API using Jupyter notebook to ensure images are high quality" style="text;html=1;strokeColor=none;fillColor=none;align=center;verticalAlign=middle;whiteSpace=wrap;rounded=0;" parent="1" vertex="1">
          <mxGeometry x="530" y="420" width="90" height="30" as="geometry" />
        </mxCell>
        <mxCell id="6nUVU_7U9WkCYsa5ToyP-29" value="Images stored in S3" style="whiteSpace=wrap;html=1;aspect=fixed;fillColor=#f8cecc;strokeColor=#b85450;" parent="1" vertex="1">
          <mxGeometry x="440" y="260" width="80" height="80" as="geometry" />
        </mxCell>
        <mxCell id="6nUVU_7U9WkCYsa5ToyP-31" value="" style="endArrow=classic;html=1;rounded=0;entryX=0.5;entryY=0;entryDx=0;entryDy=0;exitX=0.5;exitY=1;exitDx=0;exitDy=0;" parent="1" target="6nUVU_7U9WkCYsa5ToyP-29" edge="1">
          <mxGeometry width="50" height="50" relative="1" as="geometry">
            <mxPoint x="480" y="190" as="sourcePoint" />
            <mxPoint x="470" y="230" as="targetPoint" />
          </mxGeometry>
        </mxCell>
        <mxCell id="6nUVU_7U9WkCYsa5ToyP-33" value="Celebrity Recognition API" style="whiteSpace=wrap;html=1;aspect=fixed;" parent="1" vertex="1">
          <mxGeometry x="630" y="110" width="80" height="80" as="geometry" />
        </mxCell>
        <mxCell id="6nUVU_7U9WkCYsa5ToyP-34" value="" style="endArrow=classic;html=1;rounded=0;exitX=0.5;exitY=0;exitDx=0;exitDy=0;" parent="1" source="6nUVU_7U9WkCYsa5ToyP-18" target="6nUVU_7U9WkCYsa5ToyP-35" edge="1">
          <mxGeometry width="50" height="50" relative="1" as="geometry">
            <mxPoint x="420" y="270" as="sourcePoint" />
            <mxPoint x="760" y="260" as="targetPoint" />
            <Array as="points">
              <mxPoint x="670" y="260" />
            </Array>
          </mxGeometry>
        </mxCell>
        <mxCell id="6nUVU_7U9WkCYsa5ToyP-35" value="Output" style="whiteSpace=wrap;html=1;aspect=fixed;fillStyle=auto;fillColor=#FFFFFF;strokeWidth=5;" parent="1" vertex="1">
          <mxGeometry x="760" y="220" width="80" height="80" as="geometry" />
        </mxCell>
        <mxCell id="6nUVU_7U9WkCYsa5ToyP-36" value="" style="endArrow=none;html=1;rounded=0;entryX=0.5;entryY=1;entryDx=0;entryDy=0;" parent="1" target="6nUVU_7U9WkCYsa5ToyP-33" edge="1">
          <mxGeometry width="50" height="50" relative="1" as="geometry">
            <mxPoint x="670" y="260" as="sourcePoint" />
            <mxPoint x="470" y="220" as="targetPoint" />
          </mxGeometry>
        </mxCell>
        <mxCell id="6nUVU_7U9WkCYsa5ToyP-37" value="Perform analysis" style="text;html=1;strokeColor=none;fillColor=none;align=center;verticalAlign=middle;whiteSpace=wrap;rounded=0;" parent="1" vertex="1">
          <mxGeometry x="690" y="220" width="60" height="30" as="geometry" />
        </mxCell>
        <mxCell id="6nUVU_7U9WkCYsa5ToyP-38" value="Images stored on internet" style="whiteSpace=wrap;html=1;aspect=fixed;" parent="1" vertex="1">
          <mxGeometry x="80" y="30" width="80" height="80" as="geometry" />
        </mxCell>
        <mxCell id="6nUVU_7U9WkCYsa5ToyP-39" value="" style="endArrow=classic;html=1;rounded=0;exitX=1;exitY=0.5;exitDx=0;exitDy=0;entryX=0;entryY=0.5;entryDx=0;entryDy=0;" parent="1" source="6nUVU_7U9WkCYsa5ToyP-38" target="6nUVU_7U9WkCYsa5ToyP-11" edge="1">
          <mxGeometry width="50" height="50" relative="1" as="geometry">
            <mxPoint x="420" y="270" as="sourcePoint" />
            <mxPoint x="470" y="220" as="targetPoint" />
          </mxGeometry>
        </mxCell>
        <mxCell id="6nUVU_7U9WkCYsa5ToyP-40" value="" style="endArrow=none;html=1;rounded=0;entryX=0.5;entryY=1;entryDx=0;entryDy=0;" parent="1" target="6nUVU_7U9WkCYsa5ToyP-29" edge="1">
          <mxGeometry width="50" height="50" relative="1" as="geometry">
            <mxPoint x="480" y="380" as="sourcePoint" />
            <mxPoint x="470" y="220" as="targetPoint" />
          </mxGeometry>
        </mxCell>
        <mxCell id="6nUVU_7U9WkCYsa5ToyP-42" value="" style="endArrow=classic;html=1;rounded=0;exitX=0.5;exitY=1;exitDx=0;exitDy=0;entryX=0;entryY=0.5;entryDx=0;entryDy=0;entryPerimeter=0;" parent="1" target="q1QQXYPJhSpeKHFB5yfB-3" edge="1">
          <mxGeometry width="50" height="50" relative="1" as="geometry">
            <mxPoint x="290" y="300" as="sourcePoint" />
            <mxPoint x="379.6399999999999" y="462" as="targetPoint" />
          </mxGeometry>
        </mxCell>
        <mxCell id="6nUVU_7U9WkCYsa5ToyP-43" value="" style="shape=image;imageAspect=0;aspect=fixed;verticalLabelPosition=bottom;verticalAlign=top;image=data:image/png,iVBORw0KGgoAAAANSUhEUgAAA+gAAAPoCAIAAADCwUOzAAAAZHpUWHRSYXcgcHJvZmlsZSB0eXBlIGlwdGMAAHjaPYuxEcAwCAN7psgIxhJgxvHZjbsU2f/CpcireRUv536WXB8YgsHO5G6s/Wjqat2jjEC4ITTUZsxw75Y26oPb6Ek3cxVULi+RYRNLcoiDUAAAIABJREFUeF7s3Xd0VQW+t/HdTgtJgIRmAkiVXi0gKiqIBVAEdWzYC9YZnTszr1Pv3Olz77X3rtgVmQEUFVABpSPSewkkEEhCAiHJKbu9f8C1Bn4BTpKzz34+i+UKybMzLofyzckuquu6CgAAAIDUpkkBAAAAgMbHcAcAAAA8gOEOAAAAeADDHQAAAPAAhjsAAADgAQx3AAAAwAMY7gAAAIAHMNwBAAAAD2C4AwAAAB7AcAcAAAA8gOEOAAAAeADDHQAAAPAAhjsAAADgAQx3AAAAwAMY7gAAAIAHMNwBAAAAD2C4AwAAAB7AcAcAAAA8gOEOAAAAeADDHQAAAPAAhjsAAADgAQx3AAAAwAMY7gAAAIAHMNwBAAAAD2C4AwAAAB7AcAcAAAA8gOEOAAAAeADDHQAAAPAAhjsAAADgAQx3AAAAwAMY7gAAAIAHMNwBAAAAD2C4AwAAAB7AcAcAAAA8gOEOAAAAeADDHQAAAPAAhjsAAADgAQx3AAAAwAMY7gAAAIAHMNwBAAAAD2C4AwAAAB7AcAcAAAA8gOEOAAAAeADDHQAAAPAAhjsAAADgAQx3AAAAwAMY7gAAAIAHMNwBAAAAD2C4AwAAAB7AcAcAAH7kuq6UAKnFkAIAAAAvSSQSJSUlpaWlJSWle/eWVVVVHxSNRh3HcV33m8keCoWysrKysjIzM7OysrJycprn5eXl5eVFIpEj/08AjULly00AAOB15eXlBYdsLykpOc55k5OTk5+f17Zt2+7du7dp00bKgQbCcAcAAF5VWFi0du2aNWvW7NlTIrXHqHnzZt279+jRo0fnzp0Mg1MV0JgY7gAAwGMqKiqWLl26dOnSffv2S23ShEKhAQMGnH76YF6DR2NhuAMAAM9Yt27d/PkLNm/e7DiO1NaXDh1OHDx4cJ8+fXgBHg2M4Q4AAFKd67orV6787LPPd+/eLbUNJDMzc9iwcwcPHqzrutQCycFwBwAAKW3VqlUff/xJWVmZFDaC5s2bjRgxYuDAgaqqSi1wvBjuAAAgRRUXF0+dOm3r1q1S2Mhat241atSobt26SSFwXBjuAAAg5SQSiQ8/nL548eJGPJf9aA0cOPCSSy7mHvCoPwx3AACQWrZu3free5PKy8ulMOVkZ2ePHXtpz549pRA4Fgx3AACQKmzbnj79o3nz5nl6nwwYMGDcuLHBYFAKgaPDcAcAACkhGo1OnPha6p/RXhdt2rS+4YYbcnJypBA4Cgx3AADQ+Pbu3fvSSy+n5q1jjk1GRsb48dd27txZCoG6YrgDAIBGVlBQMHHia9XV1VLoMZqmjR49+owzhkghUCcMdwAA0JiWL1/+3nuTLMuSQq8aNuzcCy64QKoAGcMdAAA0mlmzPp05c6ZUed65555z4YUXShUgYLgDAIDG8cEHH37xxRdSlSbOOefsiy66SKqAI9GkAAAAIPk+/fQz/6x2RVFmz57z0UcfSRVwJAx3AADQ0ObPXzBjxgypSjezZ89ZuHChVAGHxXAHAAANat26dVOnTpWq9DR16rT0uFE9GgXDHQAANJzS0tK3337Ht5fY2bb92muvl5eXSyFQC4Y7AABoIPF4/NVXJ8ZiMSlMZzU1Na+88moikZBC4IcY7gAAoIFMmjSptLRUqtLfnj17fHuyEI4Hwx0AADSEr7/+euXKVVLlF0uWLF2/fr1UAd/DcAcAAPVu//79U6ZMkSp/ef/9ydFoVKqAbzHcAQBAvZs0aVI06utT23+ssrJy6tRpUgV8i+EOAADq16pVqzdu3CRVfrRs2TL+y6DuGO4AAKAeWZb14YcfSJV/TZ8+3bc3x8TRYrgDAIB6NHv27IqKfVLlX8XFxcuXL5cqQFEY7gAAoP5UV1fPmTNXqvxuxoyZtm1LFcBwBwAA9Wbu3Lk8aUhUXl6+cOFCqQIY7gAAoH7U1NQsWMAerZPZs+c4jiNV8DuGOwAAqBdffjkvHo9LFRRFUSorK1evXiNV8DuGOwAASD7bthctWiRV+NaCBQukBH7HcAcAAMm3Zs2aqqoqqcK3tm7dumfPHqmCrzHcAQBA8i1cyMvtR40X3XFkDHcAAJBk5eXlW7ZskSr80PLlK7hEFUfAcAcAAEm2atVqKUEtotHotm3bpAr+xXAHAABJtno1w/0YrV27TkrgXwx3AACQTAcOHCgsLJQq1G7dOoY7DovhDgAAkmnt2nWu60oVard37949e0qkCj7FcAcAAMm0detWKcGRbNq0UUrgUwx3AACQTAUFXF55XIqKdkoJfIrhDgAAkqaiomLfvv1ShSMpKiqSEvgUwx0AACTNjh07pASCvXv3JhIJqYIfMdwBAEDS7NmzR0ogcBxn507OlkEtGO4AACBpSkq4I0oSFBcXSwn8iOEOAACShuGeFPv3c50AasFwBwAASVNWtldKIKusPCAl8COGOwAASI6amhrbtqUKssrKSimBHzHcAQBAclRVVUkJ6uTAAV5xRy0Y7gAAIDkY7snCcEetGO4AACA5qqtrpAR1Eo/HpQR+xHAHAADJ4Tic4J4cXCqAWjHcAQBAcjiOIyWoK7Y7fozhDgAAksNxXClBXTHc8WMMdwAAkCwM96TRNEYafohfEwAAIDlCoZCUoE50XTcMQ6rgOwx3AACQHJFIREpQJ3wJhFox3AEAQHKEw2EpQZ2EQkEpgR8x3AEAQHLwinuyNGmSKSXwI4Y7AABIjqZNm3JJZVLk5DSXEvgRv7sAAEBy6LretGlTqYKseXOGO2rBcAcAAEmTm5srJZAx3FErhjsAAEgahntStGrVSkrgRwx3AACQNPn5+VICgaqq/GdErRjuAAAgadq3byclEOTm5nJjTdSK4Q4AAJKmdevWgUBAqnAkvNyOw2G4AwCApNE0rW3btlKFI+nYsYNQwK8Y7gAAIJlOOqmrlOBITjrpJCmBTzHcAQBAMnXv3l1KcFi5ubncmQeHw3AHAADJlJeXl52dLVWoHS+34wgY7gAAIMl69OBF92PUp09vKYF/MdwBAECSDRgwQEpQi6ZNm3bq1Emq4F8MdwAAkGQdO3bkRO1j0L9/f1VVpQr+xXAHAADJN3DgQCnBDw0cyHcqcCSGFAAAGpvrKLEqN16lWHHXthTbUhxLsU330BuH/uk6lmKbh36qaopmKLqh6IaqBQ6+oWj6d94OqAffCDVRw1mKEZL+JYCjc8opJ3/66aeO40ghDunYsWObNm2kCr7GcAeAxuBYbtVet7LEPVDm1uxzYweU2AE3XuXGqtzYASVW5cYOuLEDysH3xKulT3e8VN1QwllqKFMNZyrhLDWcqYaz1HDWwVmvhjKVSLaamaNltVKzWiiRptLnA5RmzZr17dtn+fIVUohDhg49S0rgdwx3AKgfsSq3qtSpLHWryg4N9AOlB384B8qUmgrXdaVP0XBc21KqK9zqCilUFEVRjaCa2ULNbqlmtVSzWmpZLdSsVmpWi4M/VbNaKBp/uUBRFOXss89muNdRixYtevToIVXwO/5sBYDj49juvmKnvNAtL3T27vjmDTd2QDrSq1wr4e7bpezbVetHVU1Ts9toue3VnHZaTjs1t52W007LaadkNKu1RxrLy8vr2rXrpk2bpBDK0KFncVkqRAx3AKgzK+6UbHXLdzjlhc7ewoNvuPuKXduSjvQR13HcfbucfbuULQu/+341nPnNmj/0RosOarO8w30epIfzzhvOcBfl5uaeeuqpUgUw3AHgcBzb3bvd3r3R2b3R2bPR2b3JLd/hcqXdsXJjVfbOtcrOtd99pxrK1Fp30dqcpLU5SWvdVWtzktok53CfAV7UoUOH3r17r169Wgp97YILLtA0bvQHGcMdAA5x9+1ydm9ydm9w9mxy9mx0Sra6VkI6CMfFjVfZO5bbO5Z/8x4tM/ebEa+1OUlr3UUJNjnCZ0Dqu+iiC9etW2fbthT6VH5+fr9+faUKUBRFUVPq6igAaEhuRZFduNIpXGkXrnSKN7jxKukINDRVVdXm+Vp+L71dX61tX71tbyWYIR2ElDN16rR58+ZJlR+pqnrHHRM6dOgghYCiMNwB+Et0v120ytmxwi5caRetdKvKpQOQWlRN01p10dr11dv109r11Vp3VTRdOgiNL5FIPPjgQ/v27ZNC3xk8eNDYsWOlCjiE4Q4grdmms2udXbjCKVxpF65wyrZLB8BL1GBEy+ult+urte+rt+2rNs+XjkCj2bBh40svvSRV/pKdnf0f//HzcDgshcAhDHefchynpKQkFos536EoSrNmzVq0aGEYXPwAL7Pi9vav7a2L7S2LnKKVnKfuH1pWS73TaXrnwXqn09QWHaQcDe2dd95dtmyZVPnIDTdc37NnT6kCvsVw94uysrLNmzcXFxfvKi4uLi4uKSmxrNpvYKdpWrNmzVq1atWyZcu8E07o1atX27Ztay2BFGKbh8b61oXOjhWMdWjZrfVOp+mdB+mdBqm57aUcDSEWiz322ON79+6VQl8YMmTImDGXSBXwPQz3NFdUVLRs2bJlX3+9Y8cOqT2snJycPn369O3Tp2fPnqFQSMqBhmKbTuFKe8tCe+tie8fXrhmXDoBPaU3bHFzweudBanNeiWhMu3btevLJpw73ypF/5Ofn3333XbrOFRo4Ogz39FRRUTHr00+/Wrq0pLRUao+CYRgD+ve/4MILO3XsKLVAfXF2b7TXz7Y3L7C3L3PNmJQD36M1y9M7D9K7DTW6nqlEsqUcybdo0eLJkydLVToLh8M//em9ubm5Ugj8EMM93ZSWlX344Yfz58+v19czunXrduEFF/Tr108KgSQxY/aWhdb62fb62c6+YqkGZKqmaycOMLqfo3c/R2vdVcqRTP/+978XLPjeg3X9IxAI3HLLzR15/QvHhOGePnbv3v3Bhx8uXLjQaagnO+bl5Y0aNer0wYOlEDhGbsVOa/1se/0ce+tCzoRB/dGa5endzzG6n6N3GawYnBDYEPx5oaqu69dff1337t2lEKgdwz0dWJb1/uTJM2fObLDJ/l29eva84YYbWrRoIYVA3Ti2s32ZtX62tX62s2ezVAPJpAbCeudBB1+GV5vlSTmOneu6b7755sqVq6QwfWiadtVVV/LNahwPhrvnFRQUvPDii7t27ZLCehQKhS4bN2748OGqqkotcBhW3N4w11r5kbVhrhs7INVAvdNbd9V7jzD6XKS1OUlqcSwcx5k4ceK6deulME2MGzd20KBBUgUcCcPdwxzHmTZt2gcffmjbttQ2hM6dO99y881t2rSRQuA7vtnr6z53EzVSDTQCrWUno+9FRp8LWfBJZ1nWyy+/snlz+n9vbeTIi84++2ypAgQMd6/av3//Y48/vm3bNilsUBkZGffcfTdn70FmJewNc61VH1nrPnfj1VINpAStVedDC56LWZPHNM0XXnixoKBACj1s2LBzL7jgAqkCZAx3TyotLf3fBx8sTeqtHpPFMIybbrqJK1ZROythb5xrrfzYWvcZex3epbXqbPQdafS9UGvVRWohi8fjr7/+xsaNG6XQezRNGzVq1JlnniGFQJ0w3L2nqKjowYce2r9/vxQ2GlVVLxs3buTIkVII33Ase8Nca8V0a93nbrxKqgHP0Fp3MfpcFOg/Wm3RQWpxJK7rTpv2wbx586TQS4LB4DXXXN2jRw8pBOqK4e4xmzdvfuTRR2tqPHAq8LBzzx0/frxUIc05uzdYX/3L/HqKW1UutYCH6ScODJwyzug7Ugk1kVoc1qJFi6ZMmZoiF24dp9zc3PHjr83L495ESCaGu5ds2rz5wQcfTCQSUpgqxowZM+aSS6QK6ahmn7niQ2vp+/bONVIKpA81EDb6XGCcPFbvfLrUonZFRUVvvfV2WVmZFKa0fv36XXbZuFCIZwIgyRjunlFRUfFff/pTZWWlFKaWCRMmDDrtNKlCunAde8MX5leT7XWfuZZnvsIEkk5rnm+cPDYwcKya01Zq8UOJRGLq1KlLliyVwlQUDAYvvvji0047VQqBY8Fw9wbLsv7+j3+k2j1k6iIQCPzql7/s3LmzFMLb3NKt5tLJ1tdTnMoSqQX8QlVVreOpgZPHGX0vVAIRKcf3rF27dsqUqfv27ZPCFNK9e7dLL720efPmUggcI4a7N7z44ovz5s+XqhSVnZ39+9/9Ljc3VwrhQWbU+nqauXSSvWOFlAL+pYaaGH0uCJx2pda+v9TiW6Zpzpw568svv0z9s96zsrIuueTivn37SiFwXBjuHjBr1qw333pLqlJax44df/fb3/Jc1XTi7t1uLnjDXDqZp5wCdafn9woMGW/0G60YQanFIXv2lHz88cdr166VwsYRCoWGDj1r6NChwSD/n6LeMdxT3Z49e37/hz9YliWFqe6aa645b/hwqULKc117wxxz/uv2pi/50wM4NmpGs8CpVwQGX602z5daHFJUVDRjxowNG1LoXu+GYZx++uBzzz23SRNuJYQGwnBPdY888sjKVaukygMikchf//KXZs2aSSFSVXS/uWSSufAtp7xQSgHIVE3Tu58TOH283pWn89TVjh2F8+bNW7VqVeOePJOVlTV48ODTTx/MZEcDY7intBUrVz766KNS5RmnnnLKnXfeKVVIOc6udeaC163lH7hmTGoBHDWtZcfA6dcGBo5VwplSC0VRlKqqqoULFy1ZsqSBL11VVbVDhw6nnXZqv379dF2XciD5GO6py7Ks3//hD3v27JFCL7n/vvv69OkjVUgNtmmt+sRc8Ia9fZmUAjheajDDGDgmMGS81qqL1OKQ7du3r1ixctWqVfV9r+S8vLz+/fv379+vadOmUgvUI4Z76po+ffqk99+XKo854YQT/vqXv0gVGlui2lz0rvnly87+tPq6EfAEo9vQ4Dm3ax25EXhdua5bVLRzy5bNW7Zs2batwDRN6Yg6yczM7Nq1S9euXbt27ZqdnS3lQENguKco0zTv//nPa2pqpNB7fn7//b1795YqNA63utycN9Fc8IYbrd+XrwAcmd6+X/Cc2/We50khvse27d27d+/aVbx7d3Fx8e6ysrIDBw44jiMdpwSDwebNm+Xk5Obl5eXl5eXn53E7dqQghnuK+nLevJdeekmqPKlvnz733XefVKGhuRVFibkvWUvf50R2IHVorToHz77V6H+xogekFrVzXbeqqmr//v01NTWWZZmmZVmm6yrBYDAYDASDwUgk0rRp04yMDOkzAY2P4Z6i/vrXv27ZulWqPElV1b/+5S9t2rSRQjQQp3i9Oed5a+VHrtOYd2kAcDha09aBM28KDLpSCTIuAV9juKeiwsLC//zjH6XKw4YPG3bttddKFeqdvXWxOed5a8NcKQTQ+NSMpoHB1wTOuF5tkiO1ANITwz0Vvfb6659//rlUeVg4HH7k4Yd5yFwjstfMSsx5zt6xQgoBpBY1EDZOuSw49BYe3gT4kCEFaGi2bS9cuFCqvC0Wi23YsIH7QjYKe93niZmP2LvWSyGAVOSaMXPBG9bid41TLgsOv0vNbi0dASB9MNxTzrZt26LRqFR53tq1axnuDczeNC8x4xG7cKUUAkh1rm2ai962vpocGHRV4NwJamYL6QgA6YDhnnI2btwoJelgzdq1UoKkcbYtiX/yiF2wVAoBeIlrJRLzJppL3gucfm3w7FuVDG5fCKQ5hnvK2eCP4V5UVFRZWckjLeqbs2N5Ysaj1ub5UgjAq9xENDHnBXPh24Ezrw+edbMSzpKOAOBVmhSgQbmuu3nzZqlKE7zoXq+cXWtjr9xe89SVrHbAD9x4VeLTp6r/Ocz87GklUS3lADyJ4Z5aduzY4YcT3A/aumWLlOBYOHs2xV6/p+axsdb6OVILIK240cr4jEeq/3meOfdFhYepAWmHU2VSy44dO6Qkfezdu1dKcHTcyj2Jjx+ylk916/B8bwDpyq0uj0//b/OLl4MX3GecfJmiqtIRALyB4Z5a9u/fLyXpo7y8XEpQZ2Y0MecFc+6LbsIv37EBcGTOgdLYpN/q814Ljn5A73y6lAPwAIZ7atlfWSkl6WMvwz0pXNda9q/EJw87lSVSCsB37OL10edvNHqcGxr5K7VlJykHkNIY7qml0k/Dvbq6OpFI8PzU42FvXZT44O/2rnVSCMDXrHWf2xu/CAy6KnjevUpGMykHkKK4ODW1+Gq4K5zmfhzcsoLYxLuiz13PagdQF65tJea/Xv0/I8wvXlZsU8oBpCJecU8tfhvu0Rg3PTh60f2JWU+YC99y+asXwFFyo5XxD/9hLnwzdNEv9d7nSzmA1MJwTy2m6a8pZui6lOA7HMuc/3ris6fcGh9dxAwg6Zy9O6Kv36t3PCU0+tdafm8pB5AqGO6pJSMSkZK0ojPc68zeujj+7z86Jdz8HkBy2NuWRp+43DjtJ6ELf6FEeI414AEM99QSZrjjR9zq8sSH/zSX/VsKAeDouK5rLnrHWjMzNPIBY+AYKQfQyLg4NbX47RX3jIwMKfE317UWvV3zvxew2gHUH7eqPPbur6LPXefyPT0gtTHcU4uvXnEPBALZ2Xxz9rCcXeuiT/0k9q//dKP+umQZQKOwty6ueXRM4uOHFJPbBgApiuGeWnz1intOTo6U+FWiOvHB36JPXGYXrpRSAEga1zYTs5+teXiUvX621AJoBJzjnlpatW4tJemD4V4ra9VHiWl/dyr3SCEA1AunvCj6ygSj14jQJb9Tm7aRcgANh+GeWjp27Cgl6aNtfr6U+Iu7d0d8yp+sjV9IIQDUO2vNTHvTvOB59wTOvFHRuJEAkBI4VSa1nNi+vab55f+UTp07S4lvuI45+7maR0az2gGkDjdRE5/+39HHxjo710gtgIbgl43oFcFgMC8vT6rSROdOnaTEF9ySLdGnrox//KBrxqUWABqavXtD9KmfJGY+qvC0ZqCxMdxTTscOHaQkHTRt2rRFixZSle5cx5zzfM1jl3IRKoBU5tpW4tOnoo9f5uxaK7UA6hHDPeV08sfr0H369JGSNOeWbo0+dWX8o/91rYTUAkDjs3dviD55RWLmY7z0DjQWhnvKGThwoB+eJ3ryySdLSfpyHXPuCzWPjuGFdgDe4tpW4tMno09c7uxaJ7UAko/hnnKysrJ69eolVd4WiUR69ewpVenJLd0affqq+PT/4YV2AB5lF6+PPnl5YtbjimNJLYBkYrinojOGDJESb+vfv79h+O9WpK5jzn2x5rFL7R0rpBQAUpprW4lZT0Qfv8wpXi+1AJKG4Z6KBgwYEEnrR6gOO/dcKUk3bunW6NNXx6f/N7eOAZA27OL10ScuT8x6gpfegYbBcE9FhmGcesopUuVVHTt27OyzO7hbi96ueWysvWO5FAKAx7i2mZj1ePSpK92926UWwPFiuKeoYcOGqaoqVZ404rzzpCSNRPfHXr8n9q//dM2YlAKAV9lFq2seG2stmyKFAI4Lwz1FtW/fftBpp0mV97Rq1erUU0+VqjThbFta88gl1uqZUggAnufGq2Pv/ir+9i+UeLXUAjhGDPfUNW7cuPS7gvPyyy/3w80uFddJzHws+vx1zv7dUgoA6cNcPq3msTEO97oF6gfDPXW1aNHi3PS6iLNLly6n+OD27e6+XdFnrk18+qTrOFILAOnG2VsYfeZqc/ZziutKLYCjw3BPaRePHp02t5fRNO2qK6+UKs+zVn1c8+gYe/syKQSAtOXaVvzjB2Mv3uQeKJFaAEeB4Z7SMjMzx156qVR5w/kjRnTq1EmqvMyMxd//XeyNn7nRSikFgPRnbV5Q88gYe/1sKQRQVwz3VHfeeef1799fqlJd27Ztx40bJ1Ue5hSvr3l8nLnkPSkEAB9xq8ujr0xITPuLYptSC0DGcPeAW2+5JTc3V6pSl2EYt916a/pdaPsNa/E70SevcEq2SCEA+FFi3mvRJ69wy4ukEICA4e4BGRkZd955p3eH7/XXX9+uXTup8iYrEZ/0m9jkP7hWQkoBwL/sXetqnhhnb5wrhQCOhOHuDZ06drz8ssukKhWNHDnyzDPOkCpPcvftij59lbn0fSkEAChuzf7YKxPMT5+UQgCHxXD3jPPPP3/48OFSlVpOHjjQo19viOxN82oeH2fvXCOFAIBDXMeJz3ws9soEJXZAagHUQnW5zaqnvPXWWzNnzZKqlNCvX7+777rLu2f4HIH5+bOJmY9wm3YAODZabvvwdU9obbpJIYDvYbh7zzvvvPPJjBlS1chOHjjwjjvuSMOHpMarY+/+ylrjja+dACBlqcFIaNyfjf4XSyGAbzHcPendd9/9+JNPpKrRDB406NZbb9W0dDsRyynZHJt4t1NWIIUAgDoJnnFdcNQDipaG35sF6gPD3atmzJw5adIky7KksEFpmjZu7NiRI0dKofdYK6fHJ/3WTdRIIQDgKOgdTg5f+6ia1VIKATDcvaygoOCZZ58tKUmVB0o3adLkjgkTevXqJYVe4zqJ6f+d+OJlqQMAHAstq2X42ke1DidLIeB3DHdvi8ViEydOXLhokRTWu149e954442eflBU7eLVsTd+Zm38QuoAAMdONYKhcX82Bl4qhYCvMdzTwZfz5r3zzjvV1dVSWC+aNGly5ZVXpuXN2t2KnbFXJth7NkkhACAJgsPuCJ5/v1QB/sVwTxPRaPSjjz+eOXNmPB6X2qTRdf3MM88ce+ml2dnZUus9zo7lsYl3OVV7pRAAkDRG34vCP/mnYoSkEPAjhntaqaysnDZt2py5c+v7olVN0wYPGjRmzJiWLdPzciJr5fT4ew+4ZsN9FQQAOEhv1zd8w9NqZgspBHyH4Z6GysrKZs6atXjx4v3790vtUcvMzDzzjDPOOeecVq1aSa1XmZ8+mZj1OL81AKCxaM3ywjc+q7U5SQoBf2G4py3XddetW7dw0aKvvvoqGo1KuSAYDPbo0WPw4MEnDxyYlg9DPcQ245N+Y349VeoAAPVLDWWGr3lY7zZUCgEfYbinP8uyVq5atXmum6+4AAAgAElEQVTTpu07dmzfvr2mpq53IjcMIz8/v0vnzn379u3evXsgEJCO8LiaiujEu+2Cr6QOANAQVE0Pjv51YMh1Ugj4BcPdd0rLyrZv375r585oLBaPxWLxQxzHycrKys7ObpqdnZOb265du7wTTtB1Xfp8acIt3Rp95XZnb6EUAgAaVHDI+ODFv1XUdHsaN3AMGO6AYm9eEHv9Xjd2QAoBAI3A6DY0fO0jSrCJFAJpjuEOv7NWTo+/8yvXNqUQANBo9Pxe4ZtfUJvkSCGQzhju8DVzwRuJaX9xHUcKAQCNTGvRIXLLS2rzfCkE0hbDHf6VmPV4YtYTUgUASBVaduvwLS9qrbtKIZCeGO7wJdeNT/mTufBNqQMApBY1kh258VntxIFSCKQhhjv8xzbj7/zKXDld6gAAqUgNhMPXPqZ3P1sKgXTDcIfPJGpir91tbZovdQCA1KXqRujyvxkDxkghkFYY7vCTmoroy7fbhSulDgCQ6lRVDY56IHDmjVIIpA+GO/zC3VccffFmp3SrFAIAPCN4zoTghT+XKiBNMNzhC27JluiLNzv7d0shAMBjAqdeERr3Jx6tCj9guCP9ObvWRV+8ya2ukEIAgCcZfS8KX/WgoulSCHgbwx1pztm5JvriTW7NfikEAHiY0fv88DUPK5ohhYCHMdyRzpyiVdEXb3ajlVIIAPA8o9eI8LWPsN2RxhjuSFtO0aroCze5sQNSCABIE0bPYeFrH1P0gBQCnsRwR3pyCldEX7zZjVVJIQAgrRjdzwlf9wTbHWmJS7CRhpwdX0dfYLUDgB9Z62fHJt6t2KYUAt7DK+5IN07BV9GXb3Pj1VIIAEhbxklnha9/SjGCUgh4CcMdacXZtiT68u1uokYKgVSkaroSCCtGSA2EFCOkBsKKEVQCYdUIKYGwagQVI6houqJqiqopmq5qmqLqiqopB9/QNEXTVVVVVF1RXNdxFNdWHFtxXcWxFdc5+E/30NuHPuqaccWMKVbCNWOKFXfNmGIlFDN26KdWQvq3BlKU0XVI+IZnFCMkhYBnMNyRPuyti2KvTHATUSkE6p0aaqI2aa5GspVQphrOVMNZSihTPfR25sF3KqFMNZylhjOVUBM1EFKMcIrehdqKK2bMTUTd2AElXuXGqtzYASVe/X9vVH3/jSq3pkKJ7ncdR/q8QL0zupwevuEZJRCWQsAbGO5IE/aWBbFX72S1o76puqFm5qpNctQmzdWM5mqT5mqT5sr/vaFm5Bx6j88vjHNdJbrPra5wqyvcmopDb1RXuDXl377zQBm/YdEAjM6Dwjc+qwQiUgh4AMMd6cDZviz64s2MACSFqulqZgs1u5Wa3VLNaqVlt1KzW6lZrdSDbzTJUVRV+hyom1iVe6DEqdzjVpYc/OEcKD309oES14xLxwN1YnQ9I3zjs37/chppgeEOz3OK10efHc/92nG01Ei21jxPbd5Wa5anNs/XmrdVm52gZrdSM1swzVNCdL9TWeLu3+1W7HQqdn7zT7eqjL+5cLSM3iPC1z6mqNxMD97GcIe3uWUF0Weucar2SiH8Sw1naS1OVJvlac3bqs3zteZ5avN8rVm+Es6UDkVKshLuvp1OxS63YqdTUeRW7HQqdrnlO5wDZdKR8LXAyWNDV/xDqoCUxnCHh7n7iqPPXO3sK5ZC+IUajGi5J6otTtRadDj4Q23RQW2SIx2HtBCvdsoKnLICt6zA+b8fbrRSOgw+Ejzj+uDFv5UqIHUx3OFVbnV59JlrnNJtUoj0pKqqmtNWa91Vy+2gteyg5p6oteyoZreWjoPPVFc4ewuc0gKnbJtTtt0t2eKUFbg8msfHgufdEzzvXqkCUhTDHd4UOxB9bry9a73UIX1ozfK01l211l20NidprbtorbpwizccC8dySrc5ezYd+rF7k1u+g5tX+kpo9K8DZ94oVUAqYrjDg8xo9IWb7e3LpA4epmW11Np01VqfdGipt+qihJpIBwHHxEo4JVucPRudPZud3RudPZucip3SMfAwVVVDl/3VOOUyKQRSDsMdXmObsVfvsDZ+KXXwGC2nnZbXQ8/vpeX11PJ7qpktpCOAehM7YO9a6+xc6+xcY+9a65Zt4yX5NKNqeviah/XeF0ghkFoY7vAU14m98TNr9QypQ6pTNU1t0fGbma7n9VTCWdJBQCMxo07xenvnWmfXWmfXWmf3Js6STwOqEQzf8LTe9UwpBFIIwx1eEp/0a3PpZKlCitJy2+nt+mvt++tte2sndOcMdXiVbTp7Njk719g7lts7lrulW3k93qPUYCRy84tah5OlEEgVDHd4RuLjhxKzn5UqpBA1nKm366u166e376+366c0aS4dAXhQvNouXOnsWG7vWG4XrnSry6UDkELUSHbGXe+oLTtJIZASGO7wBmvJe7H3fydVaGSqpmmtumrt++nt+2vt+2ktO/MIUviNW15o71ju7FhuF650dq3jpJrUp+W0jdz1rpqZK4VA42O4wwPsjV/EXr3DtS0pRCNQjaDWto/e8RS946l6h4FKkHu/AP/HSjiFK+xtS+xtS+zty91EjXQAGoferm/k9tc4fw+pj+GOVOcUb4g+c40br5JCNBw1mKGf2F/veKre8VStXT/FCEpHAL7n2M7ONYdGfMFXPNI11Rg9h4eve5JvEiLFMdyR0tzKPdEnr3D275FC1Ds1kq13OPnQWM/vpWi6dASAw3BdZ/fGgyPe2bbEqdorHYCGEDzjuuDFnJOJlMZwRwpLVEefvsYu5vGojUY1gvqJA/WuZ+hdTtfye/NaFFAfnJLN9qZ59qb59rYlbrxaylGPQhf/JnDGDVIFNBqGO1KVY8deuZ0HLTU8VVW1E7rrXYboXc/QO56iGCHpCABJ4ljOjhXWpnn25vlO4UrXsaUDkGSqpoWvfVzvdZ4UAo2D4Y4UFZ/8e3Pxu1KFpNGa5+tdhuhdhxidT+e+jUDji1fbWxbam+dbm+Y7pVulGkmjBsKR21/T2vWVQqARMNyRiszPn41/8pBU4XipRlDveKre/Ryj+9lq7olSDqBxuJV77A1zrfWz7c0LOJemAWiZuZG73lVz2koh0NAY7kg51vIP4u/8gl+Z9Udr2lrvdrbR/Wy9yxAlmCHlAFKGbdpbF9vrZ1sb5jhl26Uax05r2SnjrreVSFMpBBoUwx2pxdm+LPr8Da6VkEIcHVXTtHb9jO7n6N3P0U7oLuUAUp1bts1aP8deP8fetoTHPNUHvdNpkVtfVjRDCoGGw3BHCnErS6KPj3MOlEoh6koNZRrdz9a7n2N0G6pkNJNyAB6UqLY3zbfWfW6t/9ytKpdqHIXgkPHBS34vVUDDYbgjZdhm9Jlr7MKVUgeZmplj9Bhu9Bqhdx2i6AEpB5AWXMcp+MpaPcNaM9PZVyzVqJPw5X8zTrlMqoAGwnBHqohP+rW5dLJU4Ui0ZicYvUbovUboHU9RVE3KAaQtZ+dqa/UMa/VM7khznFQjGJnwBjeZQYpguCMlmPNfj0/9s1ShdlrLTkbvEUbv87X83lILwF/c0q3W6hnW6hn2zjVSi9pp2a0j976vZrWUQqDeMdzR+Oyti2Mv3uTalhTie7Tc9saAMYF+I9WWnaQWgN+5+3ZZqz6xlk+1d66VWvyQfuKAyO2vceYhGh3DHY3M3Vdc88Q4LqiqO7VJjtH3osCAS7T2/aUWAH7ILdliLptiLZ/m7NsltfhW4LSfhMbxnWE0MoY7GpUVjz59Nd/ArQs1EDJ6DDcGXKJ3O4vbkwE4fs62JebXU61VH7vRSqmFoihKeOx/GYOukiqgHjHc0Zji7/zS/HqqVPmaqml6x9OMgWOM3hcooSZSDgBHyTbtdZ+bX0+1N8zhGRpHpuqByG2vah1OlkKgvjDc0WjML16Of/gPqfIvvU03Y+AlRv+L1ezWUgsAxy2631r5kfn1VGf7MrbB4WhZLSL3TuaPZTQWhjsah715QeylW1zHlkLf0Zq2NvpfbAy4RGvTTWoBIPnciiLr62nm11O5lWSt9HZ9I3e8yYWqaBQMdzQCt3JPzaNj3OoKKfQRNZxp9D7fGDBG7zRIUVUpB4B65+xcbX091VrxoXOgTGr9hQtV0VgY7mhwjh197jq74Cup8wVVD+gnnWkMuMToOVwxQlIOAA3OdexNX1rLplprZ7mJqFT7Rfjqh4x+o6QKSDKGOxpa4pOHEp8/K1XpT2/TzRh0ZaDfSCWjudQCQApI1FhrZppLJtlbF0tp+lNDmRk/nazmniiFQDIx3NGg7E3zYi/d4udfdWogbPS9KDDoKu7CDsCj3NKt5uJ3za/+5dbsk9p0puf3jNz1Lie7oyEx3NFw3AOl0UfHOFV7pTA9aa27BE67MjDwUiWSLbUAkPKshLXqI3PRO34+9TE4ZHzwkt9LFZA0DHc0FNeNvXCjtWWh1KUb1QgafS4MDLqKW/8CSEtOyWZr0dvmsin+fJBTZPzjeu/zpQpIDoY7Gkhi1hOJWY9LVVrRWnQIDLoqcPJYJaOZ1AKAx1lxa8V0c9Fb9o4VUppW1HBWxs/+rTZvK4VAEjDc0RDsrYtiL9zoOo4UpgNVVfWuZwTOuEHvNlRqASDdODtXm/MmWis/8s9zWPV2fSN3vqVohhQCx4vhjnrnVpdHHx3jVJZIoeepwQxj4KXBM65TW3aSWgBIZ25VmbnwLWvR2z65B3zwrJuCox6QKuB4MdxR72Iv3WJt/FKqvE1rnh8YMj5w6hVKOEtqAcA3bNNaMd2c96q9c42Uel7khmf0HudKFXBcGO6oX+bnz8Y/eUiqPEzvdGrwjBv0nsMVVZNaAPApp+CrxLyJ9pqZrmNLrVepGc0yfjZFbdpGCoFjx3BHPXIKV0Sfvjot/5hWdcPoNzpw1k3aCd2lFgCgKIri7t9tzn/dXPS2GzsgtZ6kdzglMuF1RVWlEDhGDHfUGzNW8+gYp6xA6jxGDWYETrsicOZNarMTpBYA8CPxanPRW+aXr6bltU+hkb8MDL1VqoBjxHBHfUlM/XNi/utS5SVqk5zgkPGBIeOVSFOpBQAckW1ay/6dmPuSU7pVSr1ENYKReydrrbtKIXAsGO6oF/bm+bEXb06bX11aTtvAWTcHTr1cMUJSCwCoM9e1136amPNcOt39Xc/rEblnEneHRH1guKMexA7UPDza2b9b6jxAz+seGHqb0W8k154CQP1xti1JzH7e2jBHCr0hOOyO4Pn3SxVw1BjuSL74u78yl02RqlSnt+8fPO8e/aSzpBAAkBzO7g3m589aqz7y+gP7VE2P3PmW1q6fFAJHh+GOJLNXz4i+fq9UpTT9xIHB8+7Ru54hhQCA5HNLtiQ+fdLr811r0SHjZ1OUQFgKgaPAcEcyuVV7ax4e7VaXS2GK0jucHDzvHr3LECkEANQvt3Rr4tOnrJUfene+B4eMD17ye6kCjgLDHckUm3intfYzqUpFeodTgufdo3c5XQoBAA3HLduW+PQpa8WHXnwkiKqq4Vte4sUgJBHDHUljLX0/Nuk3UpVy9I6nBM+7R+/MZAeAFOWWFSQ+e9paPs1z811r2ibj/g+UcJYUAnXCcEdyuBU7ax65xI1XSWEK0dv3C17wc73zYCkEADQ+d+/2xKwnrOXTvDVdAgPHhH7y31IF1AnDHckRfe46e+tiqUoVWusuofPv13udJ4UAgNTi7N6Q+Pgha/1sKUwhkeue0HuNkCpAxnBHEliL341N9sb1N1qzvOCIe42Bl3JfdgDwLqfgq/jHD9oFX0lhStCyWmb8x0ecMIPjx3DH8XKrymoevMiNVkphI1Ob5ATPnRA4/VpFD0gtAMAD7PWzEx8/ZO/eIIWNLzDoytDYP0kVIGC443jF3rzPWvmRVDUmNdQkcOaNwaG3KKEmUgsA8BTXtZZPS8x8zCkvlNLGpKpqZMIbWoeTpRA4EoY7jou9fk70ldulqtGouhEYdFVg+N1qkxypBQB4lm2ai99NfPqEW5W6DxLRWnXO+NkUvuuL48Fwx3FI1NQ8NMrZt0vqGofR/ezQqAfUlp2kEACQFmJVic+eMue/5loJKW0coRE/DQy/W6qAw2K449glPvh74stXpKoR6K27Bkc/oHc9UwoBAOnGLS+KT/+ntXqGFDYC1Qhm3DdVbdFRCoHaMdxxjJydq6NP/iTVnoWhNskJjbjXGHQVN40BAD9zti2Nf/A3e+caKWxoeqdTI7e/LlVA7RjuOCauE33iMnvnWqlrOKoRDJw+Pjj8Lu63BQBQFEVxXWvZvxKfPOxUlkhpgwpf9hfj1CukCqgFwx3HwvzipfiH/5SqhmP0Oi808v+pue2lEADgM2Y0Mfs5c+5LrhmT0gaiZjTN+PlHamauFAI/xHDHUXMrimoeHu0molLYELSWHUNj/qB3GSKFAAD/cvcVx6f91VozUwobSKDfqNDVD0kV8EMMdxy12Eu3Whu/kKp6pwbCwXPvCJx9K7fWAgDUhb1hbnzqn529O6SwIURufl4/aahUAd/DcMfRsVZOj715v1TVO6PHuaFLfq82z5dCAAC+w0okZj9nznnONeNSWr+0nLYZP/9IMYJSCHyL4Y6jYcZqHrzQ2VcsdfVIy2kbuvi3eo9hUggAQO3c8sL4lD9bG+ZIYf0Knf+zwLC7pAr4FsMdRyEx6/HErCekqr6oRjAw9ObgsLsUIyS1AAAI7DWz4tP+2oiPEVSDkYxffKJmt5ZC4BCGO+rK3ber5sGLGuuqfKPLkNClf+ChFQCAZDJjiU+fMr94ybVNKa0XXKWKo8JwR13F3rzPWvmRVCWfGskOjXrAOOUyKQQA4Fg4uzfG3/+tXbhSCutFxh1vah1OlipAURjuqCNn25KaZ8dLVfIZvUeExvynmtVSCgEAOA6uY375amLmow1/s2M9v1fknvcVVZVCgOGOunDd6OOX2rvWS10yaVktQmP+oPe+QAoBAEgOt7woPvl31uYFUphkPEsVdcRwh8xa/E5s8h+kKpkCp4wLjfq1EsmWQgAAksxaOin+4T/daKUUJo2WmZvxixlKOFMK4XcMd0hiB6r/53y3ulzqkkPLaRsa+ye96xlSCABAfXEPlMan/Je1uuGetBo86+bgqP8nVfA7hjsEiWl/TcybKFVJoKpqYMj44IX/oQQiUgsAQL2zV38S//d/OVV7pTAJVD2Qcf80bp6GI2O440jcki01j17i2pYUHi+taZvQT/6hdz5dCgEAaEDVFbHJv7fWNMRL70a3s8M3PSdV8DVNCuBr8Wl/bYDVHhhwScb9H7DaAQApp0nz8HVPhK/4h1r/J6BbG+bY6xv5Ya5IcbzijsOy18+JvnK7VB0XNaNZaOx/GX0ulEIAABqTu29X/L0HrC2LpPC4aC07Zdz/gaLpUgif4hV3HIbrJj6p32e5Gd2GZtz/AasdAJD61GZ54dsmhkY/oAZCUnvsnNKt1leTpQr+xXBH7azl0+zi+rpxuxrMCF/6x/BNz/NkJQCAhwTOvCly72Q9v6cUHrvErMcVKyFV8CmGO2rjWImZj0nRMdLb9c342b+NwVdLIQAAKUdr1SVy93vBYXeqWr2MKGf/HnP+a1IFn6qXX3PwOnPRO055oVQdNVVVg0Nvidz5lpp7otQCAJCqNCN4/n3hW1/VsltL6bFIzH5OiVVJFfyI4Y4fMaPmZ09J0VFTm+SEb3ouOPJXimZILQAAqU7vdFrGfVOM7mdL4VFza/Yl5r4gVfAjhjt+yPzyVedAmVQdHaPzoIz7pugnDZVCAAC8I6N5+MbnQqMeUPWAlB4d88tX3QZ58BO8heGO74vuT8xJ5lf5qqaFRtwbvvVVNauV1AIA4D2Bs26K3PmWlttOCo+Cm6ipj+9+w+sY7viexOzn3NgBqaorLbt15LaJgeH3KKoqtQAAeJXWtk/Gvf8O9B0phUfBXPSOW14kVfAXhju+5VaWJPFKdqPb2Rn3TdE6niqFAAB4XzgzdM3D4XF/VgNhKa0T1zYTMx+VKvgLwx3fSsx63DXjUiVTVTU04t7wTc8pGc2lFgCA9GGc9pPIXe9oOck5bcZa8YGze4NUwUcY7jjELStIytPa1Eh2+MbnAsPvkUIAANKQdkL3jHsnG92ScD8G13ESnzwsVfARhjsOScx41LUtqRLobbpl3DtZT8afVgAAeFUkO3zjc8Hhd6nHfYmXte5zZ8fXUgW/YLhDURTFLd1qrf5YqgSB/qMjd7+rJun7gwAAeJiqBkf8LHz9U2o4S0oFiVlPSgn8guEORVGUxOfPuo4jVYel6kZo9K9DVz2oJOmKHAAA0oDeY1jGve/rrbtK4ZFYG79wdq6RKvgCwx2KW1FkrfhAqg5Ly8yN3PpK4MwbpRAAAN9Rc0+M3PNeoN8oKTySxGdPSwl8geEOJTH7uWM+u13P7xn56b+45yMAAIcViISufig08leqdoy7y147y9mzSaqQ/o7xFxDShltZYn31L6mqndFrROSON9Xs1lIIAIDfBYbeEr7uSTWYIYW1cF3X/PwZqUL6Y7j7nTn3BddKSFUtgmffFh7/uBKISCEAAFAURdF7DIvc+ZbW7AQprIW18iN37w6pQppjuPtbdYW5+F0p+iFVD4Qv/1vwol8ox32XKwAAfEU7oXvknkl6u75S+EOuYydmPytVSHMMd19LfPGym4hK1feoGc0it75snHKZFAIAgFqomS0iE14P9B0phT9kLZvi7iuWKqQzhruPRSvNBW9I0fdoLTtl3P0el6ICAHBcjFDomoeDw++Wuu9xbdOc+4JUIZ0x3P3LnP+aG6+Sqm8ZXU7PuOsdNbe9FAIAAFlwxE/DVz2oGkEp/Ja55D23qkyqkLYY7n6VqEnMmyhF3wr0Hx2+6Xklki2FAACgroz+oyO3vFz3p6u6Ztyc+5JUIW0x3H3KXPiWW7NPqg4JnnlD6KoHFT0ghQAA4OhoHU+J3PGmVud7K5uL3lbq/Dc40gzD3Zccy/zyFSk6JHTRL4KjfyNVAADgGGltTorc9bbWqrMUKoqiuPFqc+GbUoX0xHD3I2vFdKeyRKoUVTfCP/ln4OzbpBAAABwXtVlexh1v6u37S6GiKIq54E3FNqUKaYjh7kdmHc5uV4OR8PVPGwMvlUIAAJAMGc0it71qdD9H6hTnQKm1crpUIQ0x3H3H2b7MLlp15EZt0jxy26t6t6FHzgAAQDIFwuHrnwrU4WEpdXkNDumH4e47iS9fPXKgNTsh4443tXb9jpwBAIDk0/TQ5X8LnjPhyJVdtNop+OrIDdIPw91f3H3F9pqZRwi0nLaRCa+rLTsdoQEAAPUqeOHPQ+ffd+QmMU94JQ7ph+HuL+aC113HPtxHtRYnRia8oTZve7gAAAA0jMCwO0Oj/t8RAnvNLHffriMESD8Mdz8xo+bidw/3Qa1V58iEN9SmbQ4XAACAhhQ46+bQmD+oqlrrR13HNue/VuuHkK4Y7j5iffUvN1pZ64f0Nt0iE15Xs1rW+lEAANAoAqdfGxr3Z1WrfbCZSyYpZrTWDyEtMdx9JDGv9q/L9fxekdsnqk1yav0oAABoRMapV4Su+Ieq6T/+kButNJdO/vH7ka4Y7n5hb5zrlG798fv19v0it72qZDT78YcAAEAqMAaMCV39oKobP/4QZ8v4CsPdL8za7gKpnzgwcuvLSjjrxx8CAACpw+hzUfjax1Q98IP3O6Xb7PVzaj0E6Yfh7gtuyRZr45c/eKfetnfkpueVYJNaDwEAAClF7zk8dNX//vicGZP7QvoGw90XzMXv/OA9epuTIje/qIQza+0BAEAKMvpcGLri7z+4z4y9eb5bXni4Q5BOGO4+YJvmsinffYfWsmP41lc4rx0AAM8xBowJjf3Td9/juq655L3D9UgnDPf0Z62e4dbs++anWk67yG2vqpm5RzgEAACkLOO0n4Qu/u1332N99S/l8A9YRNpguKc/6ztfhWtNW0due0XNbn2EHgAApLjAGdeHLvyPb37qVJbY62cfPkeaYLinObe80N6y8ODbWlaLyG2vqs3bHvkQAACQ+gLn3B4cftc3P+VsGT9guKc5c8l7rusqiqJmNA3f8rLaoqN0BAAA8IbgiJ8Fz7rp4Nv2hrluZcmRe3gdwz2tObb11b8URVGNYOT6p7U2J0kHAAAALwmOeiDQf7SiKK5jW0vfl3J4G8M9ndnrZzuVJaqmha/6X63DyVIOAAC8J3TFP4wupyuKYjLc0x3DPZ0dPN0tOPo3eu8LpBYAAHiTHghf96Se190pL7Q3L5BqeBjDPW25lSX2hrnBs28NDLlOagEAgJeFmoRvel5rnm8tfldK4WEM97RlLX3f6DsyeNEvpRAAAHiemtUqcvMLdsFSpaZCauFVDPe05ezbFbri71IFAADShNqyU/jaR61Vn0ghvEo9eK9ApBm3qkwNRJRQEykEAABpxS3bxt2f0xXDHQAAAPAATpUBAAAAPIDhDgAAAHgAwx0AAADwAIY7AAAA4AEMdwAAAMADGO4AAACABzDcAQAAAA9guAMAAAAewHAHAAAAPIDhDgAAAHgAwx0AAADwAIY7AAAA4AEMdwAAAMADGO4AAACABzDcAQAAAA9guAMAAAAewHAHAAAAPIDhDgAAAHgAwx0AAADwAIY7AAAA4AEMdwAAAMADGO4AAACABzDcAQAAAA9guAMAAAAewHAHAAAAPIDhDgAAAHgAwx0AAADwAIY7AAAA4AEMdwAAGk1NTY1lWVIFAIqiKIYUAACAZNq3b9+aNWvWrl27du3agoKCJ554Ij8/XzoIABjuAADUv927dx8c62vWrCkuLpZyAKgFwx0AgORzXbegoODgUl+7dm1FRYV0BAAIGO4AACSHZVmbNm06ONbXr19fXV0tHQEAR4HhDgDAcfn6668Pvqy+ceNG0zSlHACOEcMdAIBjZ1nWH//4R6kCgCTgdpAAAACABzDcAQAAAA9guAMAAAAewHAHAAAAPIDhDgAAALxdRPcAACAASURBVHgAwx0AAADwAIY7AAAA4AEMdwAAAMADGO4AAACABzDcAQAAAA9guAMAAAAewHAHAAAAPIDhDgAAAHgAwx0AAADwAIY7AAAA4AEMdwAAAMADGO4AAACABzDcAQAAAA9guAMAAAAewHAHAAAAPIDhDgAAAHgAwx0AAADwAIY7AAAA4AEMdwAAAMADGO4AAABIJtu2Kysro9GoFOLoGFIAAI3Msqxdu3YVFhbu3LmzqqrKsizLskzTPPhPVVUjkUgkEsnIyIhEIpmZmXl5ee3atWvatKn0iQF4lWma0Wg0Go3G4/FQKHTwt79hsGoamm3bBQUFu79jz549+/fvj8ViBwNd1zt06PDQQw8d+fOgjvglDiDluK67YcOGZcuWFRQUFBUV7d6927Zt6aAfysrKatu2bfv27fv06dO/f/+srCzpCAApp7S0tKioqLCwsKioqKioqKSk5OBer/XPhGAweHDBH/zt36FDhw4dOpx44onNmv1/9u48Lqp6/+P4mZVlWGRTUQwEXBFwY5MCxQVc0Fy6lqV5y9RSs/2aLd6sbDOXyiVtIbO0zCXTq1aSGy64QUoiuKCCiCyyzzDb+f3B/XlNYT5wzpmZMzPv5x/3YfriXm/izGe+53u+p829MfBRXV198uTJ48ePnz59ur6+3kRpMBjq6upMBNAqGNxtwOnTp5ctW0ZVpqSmpk6YMIGqgK+VK1fevHmTqkz597//TSX2rKGh4fTp05mZmSdOnKiqqqJyQk1Nzblz586dO7dnzx6JRBISEtKnT59+/fr16NGD+lJLU6vVmZmZVEXz8vKKiIigKrHT6/Usy1IVQaFQUEkTioqKOPxP63Q6KoHWuXz5clZW1unTp3NzcxsaGqj8f7RarVarraysLC4uzsvLu/3znp6eQUFBkZGRsbGxHTt2NPHfYBPq6+tramqoqml+fn5SKfdt0lqt9vfff9+/f39eXp7RaKRyEB4Gdxug0+kqKyupyhRrbTIrKiqaP38+VZkSExPzzDPPUJVY5ObmXrlyhapER6vVPvHEE1TVtHHjxo0bN46qaNnZ2b/88ktWVpaZZiCWZS9cuHDhwoVNmzb5+/snJycnJSWJZy+Ns7Pz+vXreX7qYxhGJpN9+eWXXl5eVCheer1+ypQpPNfnVCpVWlqaUqmkwrv961//4jwP8WHWV7lp06alpqZSlfVptdojR46cOnUqKyuL51vevaqqqrKzs7Ozs9etWxcQEBATExMbG9u1a1fq60Tq4MGDK1eupKqmff31197e3lTVhPr6+l27dm3fvl3wPx1oFQzuYEYGg4Hn33DTF+BAEEqlUq1W6/V6KmwCz3Vxo9F48ODBbdu2Xbp0iWoFU1xcnJaWtn79+piYmNTUVDEswEskkmHDhq1fv54KCQaDYd++fWPHjqVC8Tpx4gTPqZ1hmMTERA5TO1hLQUHBnj179u3bZ5kX/MYtN5s3b/bz80tNTU1OTnZ2dqa+SFzc3NyoREi1tbVbt27dtWsX/7+bwB8GdwBgVCoVtxGc88UcjUbz66+/bt++vbS0lGrNQq/XZ2RkZGRk9OvXb8qUKUFBQdRXmNfQoUM3bNjAYSv/XdLT0216cD906BCV0IYOHUolYH06nW7//v179uy5c0+LJZWWln711Vc//vjjyJEjR40a5eHhQX2FWFhycD9+/Phnn33Gcw0OBITBHQAYNzc3boP77XMDWiUjI2Pt2rW3bt2iQks4efLkqVOnEhISJk2a1L59eyo3lzZt2sTExBw+fJgKCVevXs3Pz+/SpQsVipFWqz1+/DhVEQIDA4ODg6kKrIll2fT09A0bNljrc/udamtrf/jhh23btg0bNuyRRx5RqVTUV1ifZX6T9fX1X3zxxd69e6kQLAqDOwBwfxto7eBeVla2evVq/sOZsFiW3b9//+HDhx955JGxY8fyuXOLj5SUFP6DO8Mw6enpNjq4Z2ZmtvY76l7Dhg2jErCmzMzMb7/99urVq1RoUQ0NDb/88ktGRsaMGTNiY2Op3MoscEZWdnb2p59+KoZPVnAXDO4AwP3Ca8u3yrAsu2PHju+++67lX2JhOp1u3bp1x44de+655zp06EDlwouMjPT39y8uLqZCwsGDB5988klbPNCa/z4ZhUKRmJhIVWAdV65cWbVq1blz56jQaioqKt577724uLgZM2aI+SZvzkstLbRnz57Vq1fj0Bhxss7CEgCIirkH97KysldeeeWLL75oYW9F58+ff+6553bs2EGFZpGcnEwltJqammPHjlGV6KjV6pMnT1IVISYmxgKLkdBaLMtu3br1xRdfFPPUftuRI0dmz54tyOUvM1GpVBKJhKo42rJly8qVKzG1ixYGdwDgvn7Tko0NeXl5L774orXuP+OgoaFh7dq1ixcvNtPZlCYMGTKE2wHkd/njjz+oRHSOHTum1WqpioDbUkXo5s2br732WlpamuX/QnFWW1v74Ycfbtq0iQqtQyKRuLq6UhUX33777TfffENVYE0Y3AHAjIP7wYMHX3vtNVs8kaDxd87tnl3O3N3d4+LiqIp26tQpC//O+eO/T8bX1zcyMpKqwKLS09OfffbZnJwcKhQdlmXXr1+/fPlybkflmhvnF20TVq9e/dNPP1EVWBkGdwBgOB9jbHrry8aNGxcvXsx/GdVazp8///LLL1+7do0KhZSSkkIltMYD3alKROrq6rKysqiKMGTIEPPtHwAOvvnmm+XLl4t/g5wJ6enpb775Zm1tLRVamuBPKvj555937dpFVWB9GNwBgPt7QHNvySzLLl26dMOGDU3+qg0pKSn517/+deHCBSoUTFhYWEBAAFXR0tPTqUREjhw5wnMfhUQiGTRoEFWBheh0ug8//HDLli1UaANycnLeeust8uqihXF+0W7S2bNnsUPGVmBwBwCG875qg8HQ5HXkzz//3LZWfE2oq6t76623LHl6nSCL7gUFBRcvXqQqsTh48CCVECIiIqx4DD/cqaam5o033sjIyKBCXiQSiZeXV6dOnXx8fDhfM2yhvLy89957T1R7Zji/aN+roqLio48+4v/0N7AM2zsvDAAEx2fxRq1W33WOx8aNG+3skmt1dfWbb7753nvv+fv7U60AkpKS1q1bx3+LUXp6ekhICFVZX01NzZkzZ6iKMGTIECoBS6ioqHjttdeuX79Oha3m6uratWvXbt26de3aNSAgwNfX984zT/V6fVFR0dWrV69evXrmzJm8vDxhJ9GsrKwlS5a8/PLLItmO5eTkRCUtotfrP/jgA1u8DclhYXAHAF6LNxqN5s7Bfffu3XawQ+Zet27deuONN95//31fX1+q5UulUt1///3897ocOHDgiSeekMlkVGhlGRkZPGcslUol/ofmOILa2toFCxYIO7X7+PjExMTExsb26tXLxDezXC4PDAwMDAxs/Mf6+vrs7OwDBw5kZmYKtVKekZHRpk2b6dOnU6El8HnRvtPmzZtzc3OpCkQEgzsA8F1xv/3jI0eOfP755yZibuRyuZ+fX9u2bdu2bcswTH19vVqtrqurKysrKy8vp75aMKWlpW+//fZHH33E519XC6WkpPAf3Kurq48fPy7+iZb/PpnExEQL/KGAaRqNZuHChUJtKpNIJJGRkSNGjIiKiuLwMGNXV9e4uLi4uLiqqqrff/99x44dFRUV1BfRdu7cGRYWFh8fT4VmJ8g3/K1bt+zjPgSHgsEdAHgt3ty+Z+vKlSsff/yxUI/t8PT07N27d/fu3bt27dq5c+fmVtpqa2uvXLly5cqVs2fPnj59ur6+vslMKAUFBatWrZo7dy4V8tWtW7egoKCCggIqJKSnp4t8cK+srPzrr7+oioB9Mlan1+sXLVp0/vx5KmyR+Pj4SZMmCXKXtqen5/jx41NTU3fs2LF582b+58OsWLGiS5cujYsIVsTnRfu27777Tmw33QIJgzsA8Fq8aVxx1+v1S5cu5XkwCMMw3t7e999/f2xsbM+ePVuyl9TNzS0sLCwsLGzEiBF6vT4nJ+fo0aP79u0z3wSfnp7evXt3QR5xalpKSsrq1aupinDy5Mnq6moPDw8qtJpDhw7x/LAXGBgo1Fb+ZcuWsSxLVXc7evToF198QVWmzJo1y3xbsAQZf0lLlizJzs6mKlpERMTjjz8eGhpKha2jVCrHjRuXnJz89ddf//bbb1RuSl1d3eLFi99//30O1wEExH+P+5UrV/bu3UtVIDoY3AGA1+DeuGCzYcOGy5cvU60pjcN3XFwc5z3Zcrk8MjIyMjJyypQpjRfHb9y4QX0RF2vXrg0JCRF8trjLwIED09LSeK6H6fX6/fv3p6amUqHV8N8nM2zYMCppKW7Ts6enJ5UQwsLCOnbsSFXitX37dv5nyKhUqieeeMKsF09UKtXs2bPj4uJWrFjBZ5fd+fPnN2zY8Oijj1KhGd15Yy43X331Fc/PzLf5+fk1Hu/j4eHh6enp+v9kMll9fX1dXZ11P+TYGb5/8ABgB/i8B6jV6vPnz/PZKBkRETF58uSuXbtSYUu5uLikpqaOGjVq796969atE/wZojqdbvHixZ988gmfDzwkFxeXhISEX3/9lQoJ6enpoh3cy8rKeG6uUCgUiYmJVAVmlJeXx/8I8D59+jz77LPe3t5UKIB+/fotX7580aJFfPZobdmyZdCgQR06dKBCc+E5ChcUFPB85JmHh0d0dHRcXFyPHj3M8RhXaA73d2sAsBst2ZTSnMrKyo0bN3JbuQkKCvrnP//Zu3dvKuRCIpEMGTIkLi7uu+++2717N89zS+5SXFz8ww8/TJ48mQp5SU5O5j+4X7p06fLly507d6ZCKzh06BCHrSl3iomJues0UrCk2traDz/8kOexLRMmTHjsscf4vAq1lru7+9tvv71ixQrOt4Dr9fovv/zyjTfeoEJz4XxlshHn/+Nt2rSJj4+Pi4sLCwvj+eEBuMG/dADgtXizadOm4uJiqrqbQqGYNGnSkiVLzDS136ZSqaZPn75o0SIfHx+qbZ1t27YJdYBGc0JDQwXZkMP5Tdrc+O+TMevOCiAtW7astLSUqprl5OT06quvTp482ZJTeyO5XD537twHH3yQCpt14sSJkydPUpW58HnRNhqN+/fvp6q7ubm5TZkyZe3atdOnTw8PD+fzGwA+8O8dAHi9B3A4pSEoKGjp0qUTJ07kuWjUct27d1+6dGlkZCQVtoJer1+5ciVV8SXIXbAHDhzgdknErEpKSi5cuEBVpvj6+pr7gx+Y8Ntvvx0/fpyqmuXi4vLmm29a99Sjf/7zn8OHD6eqZn355ZfCXsprOT4v2qdOnWrVE5ecnJzGjx+/Zs2a8ePHm3V/ILQE9z94ALAbfN4DWishIeGjjz7q1KkTFQrM09PzrbfeGjlyJBW2wrlz5/hvZTEtMTHR1dWVqgiVlZUnTpygKkvjv9w+ePBgy6/UQqOampp169ZRVbNUKtVbb73Vq1cvKjS7mTNncr5NoqioyFqXs/h857fq9xwTE7N69eopU6ZgI7tIWO7dGgBEyzKDu0QieeKJJ1588UVrrdlIJJLp06ePHTuWClthw4YN/A/BNMHJyYnzVHGnVr1VWwbPwV0ikQwePJiqwFy++eab6upqqmqaQqF47bXXunXrRoUWMnv27KCgIKpq2rZt26jELDi/aM+fP//o0aNUxTAMI5VKH3300fnz51vmpmFoIY5/8ABgTzi/B7ScTCabO3fumDFjqNDspk6dOnHiRKpqqYqKij179lAVL3wu5d924sSJmpoaqrKcoqIino+XCg8Pb9euHVWBWeTm5v7+++9U1aw5c+aEhYVRleUolcpXX32V24pyYWHhsWPHqEp4nF+0i4uLW7K9x83N7Y033vjHP/5BhWBpHP/gAcCe8Lnq2hIKheLll18eNGgQFVrIpEmTBDz8e/PmzWZddA8MDOS/NqnT6Q4cOEBVlsNzuZ1hmKFDh1IJmIXRaFy1ahXn44AmTpwoyEUkYbVv3/6pp56iqqZt3ryZSoTHeXBvicDAwCVLlvTt25cKwQrM+AcPALbCrO8BEonk2WefjYuLo0KLmjlzplD7aysqKnbv3k1VvAiy6C6qpyQeOnSISkxRqVTWvanRke3fv5/z1ZIePXo8/PDDVGUdgwYN4vaacP78+dzcXKoSmPletNu1a/f222/jcpZomesPHgBsiPneAxiGmTJlSkJCAlVZmkwmmzdvnlBvTlu2bOF5lLVp8fHxbm5uVEW4ePGiuc+vbKGCgoJr165RlSmJiYnWulPCwbEsu2nTJqpqmkqleuGFF8z6asPTzJkzuT2NzvKfis10mdTd3X3BggX8HwYM5iPevz8AYDFmeg9gGGbYsGHjxo2jKutwd3d//vnnBRkjKioqjhw5QlXcKZXKpKQkqqJZfrxoEv99Mji+3VoOHTpUVFREVU2bOnVq27ZtqcqaOnXqxO0vWkZGhln3y93LHC/aSqXy9ddf79ixIxWCNQnwjgUAts4c7wEMwwQGBnLeNmoZPXr0GD16NFW1yG+//UYlvAhyoPv+/fvFcKB7RkYGlZgSFBQUEhJCVWAWnJfbQ0JCbOK2hHHjxnH4MF9XV5eZmUlVoiaRSJ5//vnu3btTIVhZq787AQBawsnJ6eWXXxb/fobHHnssICCAqmh//vnnzZs3qYq7gIAAbhtw73Tr1q1Tp05RlXlduHCBw6N272QT859dOnr06JUrV6iqadOnTzfTAoGw/P394+PjqaoJ+/btoxJRGzZs2IABA6gKrA+DOwCYxWOPPWb5pyxxoFAopk2bRlU0lmVtYtHd6ge689wno1AoRHgmiYPYunUrlTQtOjrahpZyuf1FO3XqlFqtpirBCPspyMPDY8qUKVQFooDBHQAEfg9gGCYoKGjUqFFUJRZ9+vSJjIykKtrevXvNuhFlwIABHh4eVEXIzMysq6ujKjPiuU8mJibG3d2dqkB4RUVFnM9OGT9+PJWISK9evTg8ckiv12dnZ1OVSE2ePJn/7e9gGRjcAUB406dP57BP1IqmTp3K/9NLeXn5X3/9RVXcyeVy/s8Kte6B7rm5uaWlpVRlCm5LtRbOT1zq0aOHDS23MwwjkUgeeOABqmqC1fehcdOlSxdsP7MhtvTOCgBmwn9mvVNsbKyoHovYEsHBwYKcNH/ixAkq4SUlJYX/H5YVz5bhuU/G19e3d+/eVAXCMxqNf/zxB1U1beTIkVQiOv369aOSJpw+fZpKxGjGjBn8X1XAYjC4A4DAHnroISoRozFjxlAJ7eTJk1TCS/v27SMiIqiKkJ+fX1hYSFXCY1n28OHDVGXK4MGDMWFYxalTp27dukVVTXBxcYmJiaEq0enWrZtMJqOqu928eZPzWZnW0qVLly5dulAViAgGdwAQUt++fUNDQ6lKjLp3787/d3716lWzni3DMExKSgqV0Kyy6H727NmKigqqapZEIuG/Uwi44bxPJjY2VvxHS93L2dm5c+fOVNWEnJwcKhGGUJ9gsffM5mBwBwAhCbJubS2pqalUQjP3ontMTIyXlxdVEaxyoPuhQ4eoxJTw8HChnnQLraLT6Tjv3rbdEwa5PSsgPz+fSgSQk5Pz/fffUxVNoVBw280PVoTBHQAE4+vrK8jxLNYSHx/v6upKVQRzD+4ymYz/Ill5eXlWVhZVCcloNPJ8uCz//9fAzdmzZxsaGqiqCVKp1OZud7mN26dEywzuWq1WkAe1xsbGqlQqqgJxweAOAIJJSkoS6gKuVSgUiujoaKoicD4yr+WGDRvG/9AeCx/onp2dXVVVRVXNUqlUgtw9DBxwXm4PCQmx3bmwbdu2VNKEq1evarVaqhKLpKQkKgHR4fvSDwBwW0JCApWIHbeHJt6ppqbG3Nvc27Zt26dPH6oiHDt2zJIHuvPcJ5OQkGCLW6XtA+eLSD179qQS8eJwlDvDMAaD4fLly1QlCnK5nP/DmMHyMLgDgDD8/Pxs4lGppvXt25f/GqEFLpfzv0VVq9XyHKZbTq/XHz16lKpMwTnT1sLnpJT77ruPSsSL8wdFqxzZxEFwcDDn/49gRRjcAUAY/NeAxUCQVaiLFy9SCV/9+/f38fGhKoLFzpbJysqqra2lqmYFBQVxu1MQ+OO8T4ZhmICAACoRLw7HQTa6fv06lYhC165dqQTECIM7AAjDpm9LvVN4eDiVECwwuEul0mHDhlEV4fz585wXU1uF53OXsNxuRXzu2bDpwZ3zbSTFxcVUIgodOnSgEhAjjt+XAAB3sZs1Uf5POLpw4QKVCGDo0KGcFwVvs8AtqjqdLjMzk6qapVAoEhMTqQrMhfOnUJlM5ubmRlXixfkOEFtZcW/fvj2VgBhhcAcAATg7O9vN20BgYKCHhwdVmVJbW1tTU0NVfPn4+PTv35+qCPv27WNZlqp4OXnyZH19PVU1Kzo62t3dnarALLRaLedrMvzvFbGuyspKKmlaaWkplYiC3bxiOxoM7gAggMDAQJs+CPIuwcHBVEKwzJs3/1tUy8rKsrOzqYqXAwcOUIkp2CdjRZcvXzYYDFTVNJtebmd4DO61tbV6vZ6qrEwqlXI7qB6sTk4FAAA0bmcei1ZQUBDP5xOVlZXxn/5Jffr0adeuXUlJCRWakp6e3rt3b6riqKGh4cSJE1TVLF9fX/P93oDEeZ8MwzDXr1+36eco81FdXc3tNEmL8fPzk8sxAdokrLgDgADatGlDJbYkMDCQSghlZWVUIgCJRML/FtWjR4+q1Wqq4igzM5PbQzcbDR482J6u5NicS5cuUQk0gfNqvcVgn4ztwuAOAALA4H4Xy2yVYRhmyJAhPFfOGhoazHegO5/zZCQSyeDBg6kKzMhWjiQXGwvc4sKTv78/lYBIYXAHAAHY+o1od+G/HGWxwb1NmzYxMTFURTDTge5qtZrPKeDh4eHYhmtdlrlwZH/4XGWyDP5PgQBrweAOAAKws/0MKpXKycmJqkypqqqiEsEkJydTCeHcuXM3btygqlY7evSoTqejqmYNGTKESsCMjEZjRUUFVUET+HzbW4adLbU4FAzuAABN4HlvmSWX3CIjI/lf+DbHge589smoVKq4uDiqAjO6desW5yNlHJxWq6USK3N1daUSECkM7gAATeB5KdmSgzsjxKK74IN7bW0tn4MmExISlEolVYEZWWy7l/0R/4q7i4sLlYBIYXAHAGiCp6cnlZhi4cF9yJAhCoWCqkwpLS39888/qaoVjhw5wuc0a+yTsTpscOcMgzuYDwZ3AIAm8FzutfC1cnd3d/4bS4RddOezTyYoKCg0NJSqwLxu3bpFJdA08Q/uPO/hASvC4A4A0ASeg7uFV9wZIZ6ievjwYY1GQ1UtUlVVdfbsWapqFpbbxUCobwYHZOHP7RzY2XECDgWDOwBAE2xucA8LC+vUqRNVmdLQ0JCRkUFVLXL48GHO9zUqFIqBAwdSFZid5b+H7Yb4V9zBdmFwBwBoAs8t4zwfisSNeG5R5fNEp+joaHd3d6oCsxP/srFo4V8dmA8GdwCAJhiNRioxxSpbSJOSknj+7+bk5JSUlFAVoaKiIicnh6qaNXToUCoBS8CKO2fYiALmg8EdAKAJPNfMeA7Q3KhUqvj4eKoyhWXZP/74g6oIGRkZLMtSVdN8fX179+5NVWAJPP8KODKeG+0ATMDgDgDQBJ67VK0yuDNC3KLKf7cMn/NkBg8ejNVKkcCKO2c8N9oBmIDBHQCgCTyXG601uHfr1i0oKIiqTCkpKeFzIExpaen58+epqmkSiWTw4MFUBRbC86+AI8OKO5iPFW6fAgAQP55Ti7UGd4ZhUlJSVq9eTVWmpKen9+rVi6qaxue21PDw8Hbt2lEVWAjPvwKBgYEO+wgnPN4IzAeDOwBAE6qrq6nEFCsuuQ0cODAtLY3PIdyHDx+eMWMGt88efPbJ4Ph2UeE5uIeEhHzyySdUBQCtg60yIGo8T/YA4KyiooJKTLHikpuLi0tCQgJVmaJWqw8fPkxVTSguLr548SJVNU2lUvF/+CsISK/XU4kp2OcNYA4Y3EHUcHcUWAvP5737+vpSiRlZ6xZVPsvtCQkJVrxMAffiueKOwR3AHDC4g6jxudwPwJlareb5vefn50clZhQSEhIaGkpVppw5c6a0tJSq7sZngzv2yYgNz8EdpwMBmAMGdxA1rLiDVZSXl1MJoW3btlRiXjwX3Tkc6H7t2rUrV65QVdOCgoJ4ftIAwfFcMq+pqaESAGg1DO4gajxXPQG4KSwspBKC1Qf3hIQEV1dXqjKltbtl+OyTwXK7CHl4eFCJKTxv7waAJmFwBzPiuWDDYMXddnB+UqY4cV45vs3qg7uTk9PAgQOpypTi4uLc3Fyq+p+MjAwqaZpCoeD5WwVz4Dm4V1VVUQkAtBoGdzAj/reaYcXdVtTX11OJLbl69SqVmOLq6qpSqajK7HjulmFas4h+7do1zpcpoqOj3d3dqQosjecfSmVlJZUAQKthcAcz4j+429aKuyMfXllbW0sltoTn4G715fZGgYGB3bt3pypTMjIyWngthfNyO8MwQ4cOpRKwAp4r7uXl5djmDiA4DO5gRtwe4HKnhoYGnmcJW5JtfcwQVl1dHZXYDLVaXVRURFWmdO7cmUoshOei+61bt86ePUtVDMMw3M59ZxjG19e3d+/eVAVWwHNwZxjm0qVLVAIArYPBHcyI/x53hmFu3LhBJWLhyIO7Pa24nzt3zmAwUJUpXbt2pRILiY+Pd3NzoypTWnLCY1FREee7AgYPHoxzA8WpQ4cOVELA4A4gOAzuYEYSiYT/7H79+nUqEQs72+fdKvzPTxSPM2fOUAmhS5cuVGIhSqUyKSmJqkw5fPgwuQeM83K7RCIZPHgwVYF1BAUFUQnhwoULVAIArYPBHcyL/zZ3Wxncy8rKdDodVdktzjcmilBOTg6VmKJQKMSzVYZhmOTkZCoxpbq6Ojs723RzYTqzzQAAIABJREFU5MgR00FzwsPD27VrR1VgHb6+vjzvT83KyiI/9QFAq2BwB/Pif7aGrQzuxcXFVGLPamtr7eP0t7q6Op7LhEFBQXK5nKosJyAgoFevXlRlium5vLy8/OLFiyYCE3B8u8jx/AhaW1vL82MwANwFgzuYl4+PD5UQbGUgvnbtGpXYOftYdD969KjdbHC/jectqseOHTNxtszx48eb+yXTVCpVXFwcVYE1BQcHUwkhMzOTSgCgFTC4g3n5+flRCcFWVtyxsGQfN6K15F5M03iewGgOcXFxfE4Iqays/Ouvv5r71WPHjjX3S6YlJCTw30oHZsVzxZ1hmKNHj1IJALQCBncwL/4r7uXl5VqtlqqsD4M7n5O8RaK2tpbcz22aTCbr27cvVVmaXC7nuSmlud0yGo2G8728PH9LYAGRkZE8z/y5efPmiRMnqAoAWgqDO5gX/8GdZdnz589TlZVduXLl1q1bVGXncnNzS0tLqUrUDh06xHOfTFhYGM/jF80kOTmZzwTW3OB++vRpbvdkBwUFhYaGUpVt4Pk9w4j4JFkvLy/+f0y//PILlQBAS2FwB/Py9fWlEloLHwFjRQcOHKAS+8eyLP99Jta1c+dOKiFER0dTiXW0b98+MjKSqppVVlaWn59/789z3sFsT8vt/M+BFe3gzjBMVFQUlRCysrLs4wYYADHA4A7mxX/FncHgbjts+t9DVlbW1atXqYoQExNDJVbD81zIe/eysyx78uTJJmPTFArFwIEDqcpm8H9ssH0P7gzDbNu2jUoAoEUwuIN5BQQE8LlA3+j8+fP83xrN5/Tp0zdv3qQqh3Dp0iXbPV1n+/btVELo3Llz27ZtqcpqYmJivLy8qKpZ9y6u5+XlcTsDNDo6mucB4aLC/9VJzIN7cHAw/wune/fu5fxsXQC4EwZ3MC9XV9f27dtTFUGn03G+Im8BmzdvppIWkclkVGIDNmzYQCVidOnSpVOnTlEVITY2lkqsSSaT8dmgcuXKlZKSkjt/hvNBkDzX/sWG/9it0WioxJr4f2MbjcYvv/ySqgCAhsEdzC4kJIRKaKI9sSQvL4/zqRp3sY9pJiMjIy8vj6pEJy0tzcRR5S0hk8kGDx5MVVaWnJwslXJ/2b/r8zO3wd3f35/PbnsR4v+8LZHf1c3zOQCNsrOzxbz+AmAruL+CA7QQ/0MJGIbJysridlHe3L7++msqaSn+T5kVibS0NCoRl5MnT/I8BZJhmP79+/N/aoG5+fn59enTh6qadefgVVZWVlBQ0HzbLPv4gHon/qfR37hxg0qsqVOnThEREVRFW7NmDf9tRQAODoM7mB3/Z+8xDKPT6Xbt2kVVlrZv3z4TD6ZpLZ4rvuKRk5PDbS3WKgwGgyCfNEaOHEklosBn9TQnJ+f24MXtcG6FQiH+6xKtxX9wF//zoUeNGkUltNLS0hUrVlAVAJiCwR3MTpDBnWGYXbt26fV6qrKcmpoaQQY+u5SWlmYTj81iGOaHH37gf5hMQECArWz/6N+/P+d7DQ0Gw+07Abg9MDU2NpbPM1zFydnZmUoI4h/co6KiBLmglJGR8fvvv1MVADQLgzuYnbu7e2BgIFXRKisrd+/eTVWWs3z5cjx0qTmFhYWrVq2iKuvLy8v76aefqIo2fPhwKhELqVQ6dOhQqmpW4/mPnB+Yan/7ZBiG4T/RlpeX19TUUJU1SaVSob7J165de+nSJaoCgKZhcAdLEOQkYIZhNm7cKJItkj///LMN7QaxivT0dFF90LpXQ0PD0qVL+T/20s3Nzba2fwwbNozzEUanTp1iWfbUqVMcHpjasWPH8PBwqrI9gpwByv9QI3MbMWKEp6cnVdE0Gs3ChQtxhC4ANxjcwRL69+9PJS1SU1MjhtMGMzMzv/nmG6oC5osvvhDtCTMsy3788cfXr1+nQtqECRNcXFyoSkS8vb05/5Wsqqq6cOECt+NB+GyvF7N27dpRCU38g7uLi8vDDz9MVS1y69atBQsWVFdXUyEA3A2DO1hCt27dhHreyo4dO/gfAMJHbm7u4sWL+S/TOgKdTvfBBx+I8zigr776itsu7bv4+fkJct+ehfGZoTMzMzncmapUKpOSkqjKJnl4eLi6ulIV4fTp0+K/PT0lJSUgIICqWuT69esLFy4U+QYhABHC4A6WIJVK+/btS1UtwrLssmXLrPVyn5OTs3DhQv7PW2mS+N+2OSgrK5s/f35ZWRkVWtSOHTv4Pye10aOPPqpQKKhKdPr06cN5nXjHjh0c/gLef//9bm5uVGWrunTpQiWEqqoq6y5JtIRUKn388cepqqXy8/PnzZsn8jPsAcQGgztYCP9n791WUVHxzjvvmGl6NuHo0aP//ve/zbfJ3i4Hd4ZhCgsL582bV1hYSIUWsm3btrVr11JViwQFBQ0cOJCqxEgikQwbNoyqmlZfX08lTRDq1kZx6t69O5XQNm7cSCXWFx0dLeCNCoWFha+88gq3BwIAOCYM7mAhMTExbdq0oaqWys3NXbRokcVOh2RZ9scff/zggw/MesSh0WikEltVWlr66quv5ufnU6HZrVu3TsBnZk2dOlUikVCVSA0dOpT/Iz9bKCQkpGvXrlRlw7p160YltHPnzol/0Z1hmBkzZvA/uv62ioqKV1999eDBg1QIAAyDwR0sRiaT8TmE7l5ZWVlvvfUWh0v2rVVZWblgwYLvvvvO3IO1uf/7rau6uvr111/ndlOjIDQazdKlSzdv3kyFLZWUlMTnKaRW5+npGRMTQ1XC4LOl3iZ0796d80E9d1q/fr3475/p1KnTlClTqKoV6uvrFy9evHz5co1GQ7UAjg6DO1hOcnKyVCrkt9yff/754osvmu8yq9Fo/M9//jNr1izLLIPZ9+DOMIxGo3n33XeXLl1qgY9bd7l06dLzzz+/b98+KmwpPz+/p556iqrEzjLztKura2JiIlXZNpVKFRYWRlW0vLy81atXU5X1paamCv6pNT09/bnnnsvJyaFCK9NqtQcPHjx06BAVApiFkFMUgGl+fn79+vWjqtYpKSl58cUX161bJ/iW9xMnTrzwwguff/55bW0t1f6PSqWikmaJf6VNEPv27Zs1a5bF3vb0ev3mzZtfeeUVQU5+bCSRSJ599ln+B4lYXURERIcOHaiKr0GDBjk5OVGVzYuLi6OSFvn111+3bdtGVdY3d+5cwR+CW1xcPH/+/A8++KCkpIRqLY1l2ezs7OXLlz/++OOLFy/es2cP9RUAZoHB3QbY0z2LY8aMoZJWa5zMZs2atXPnTv5XWnU63f79++fOnfv2229fvnyZyv9GJpM9/fTTVNUsu19xv62qquqjjz5atGhRUVER1fJy6NChZ555Zt26dRyeFmTCyJEjIyIiqMo2WOBRpiNHjqQSexAbGyvUDQ/ffPPN+vXrLXYPDzdeXl6zZ8+mKi4OHz48a9astLS0yspKqrWEy5cvf/31108++eSbb76Znp7eeHN2Xl6e47xig6hY6M4k4MOeBvfw8PC+ffua41EjpaWla9asWb9+fVJSUmxsbI8ePVp1451Wq83JyTl48OCRI0e4HZrBMMyECRP4nHrpaG8Dx44dy8zM7NevX2pqau/evam8FfR6/ZEjR7Zv326Oxz8FBQUJeCKe1Q0ePHj9+vXCfrC5U2RkZMeOHanKHnh7e4eFhZ09e5YKaUajcdOmTcePH587d25wcDCVW01MTMxDDz20adMmKmw1nU63devWHTt2xMfHp6amhoaGUl8hsIqKipycnJycnD///LPJ9QWNRnP58uWQkJB7fwnArFox2YC12NPgzjDM1KlTs7KyzDSk1tfX79ixY8eOHS4uLuHh4UFBQQEBAQEBAZ6eni4uLi4uLlKp1Gg0NjQ01NfXl5SUFBcXFxYWnjt3Lj8/n+f6VkhIyMSJE6VSqUQi4fZHZqZ/J5bR+C+Wqu7GsuyJEydOnDhx3333jRo16oEHHuC5/6SwsHDfvn2//fabmdbqvLy83njjDQGP1LA6d3f3AQMG7N+/nwo5GjFiBJXYjxEjRggyuDcqKCh46aWXwsPD4+Pj4+LiWvIMO61We/Xq1cuXLxcUFBQUFDz99NNCPS+pOY899lhZWdkff/xBhVzodLp9+/bt27evS5cu8fHxMTExZt3ZdfPmzcZh/ezZs8XFxVTOnDt3DoM7WB4GdxvAbQoUrcDAwEGDBu3du5cKeVGr1ZmZmfeeYSKTycyxlVyhUDz//PONx0qoVKpWbYu/zRy/MYsZNWrU77//zvlixdWrV1euXPn5558HBwf36tUrPDy8Z8+eLi4u1NcxDMOUl5fn5+efPn361KlTN2/epHLunJycXn/9dV9fXyq0McnJyWYa3P38/KKjo6nKfsTFxfn5+Qn4RCGDwZCVlZWVlbV69erg4GAfHx8vL682bdq4u7trtVq1Wq1WqzUaTeMPbty4cf369Ts/P1dXV5v4LxfKnDlzKioqzHoHf35+fn5+flpaWkBAQP/+/bt27RocHOzv7099XbPq6upu/F1RUVF5eTn1dX9z7tw5W3xqMtg6DO42wM4Gd4ZhHn30UT47Uvgw03A8derUTp06Nf7Yzc2N2+Buvu0KFtCxY8c5c+Z88MEHVGiKwWBofIfeunWrTCbr1KmTt7e3h4eHp6enh4eHh4eHVCpV/7/KysrCwsLCwkLLfCNJJJIXXnjB8pfsLSAsLKxTp07Xrl2jwlYT/CApkZNKpcOHD1+3bh0VttrtvxpU+Dfme1rcnWQy2auvvjpv3jzzHfB1W+Nf+cYfu7q6BgYG+vj43H59kEgkOp1Or9fr7qDVam//p06naxzZBTnY6ty5c1QCIDwM7jaA5xYOEfLx8Zk+ffqyZcuo0DaMHj36znUXzs91N+vTnSxgwIABo0eP3r59OxW2iMFgaLzcT4UW8s9//lPAp/+KTXJy8hdffEFVraNQKDg/nNV2paSkbNmyhdtHd8FZ5jMtwzAuLi4LFiyYP39+S3aYCKW+vt66o3N5eXlpaamfnx8VAgjJgdZCbBeHrcPiN2jQoPj4eKqyAQ888MCTTz55589wHtwFP9HS8qZOnSrIs99FRSKRTJs2zRwHIolHUlKS4Cc2PvDAA56enlRlb1Qq1YQJE6jKQiyz4t7I29v7gw8+cLQ939b95ACOCYO7DeC/u0OcS7mzZs2y9e3CERERzz333F0/yfkodzsY3GUy2bx588x6A5mFSaXS2bNnp6amUqFtU6lUgn+Qdtjtv6mpqSJZhbXk4M4wjKen57vvvms3J6W2BAZ3sDwM7jaA/1YZkVy3vYtKpXr55ZcFX+ezmODg4Pnz59976CTnFXdxfr5qLS8vr3fffZfPfWPiIZfLX3zxxSFDhlChPRg+fDiVtEKPHj0cbfH1NrlcPnnyZKqyBIttlbmtcc/MgAEDqNBO5ObmUgmAwDC42wB7HdwZhunevfvLL7/ceBiLbQkPD3/nnXeaPPakJae2NckOVtwbeXt728Hs7ubm9vrrr99///1UaCe6du163333UVVL2f01CtMSExP5PNJBKBZecW8kl8tfeeUVB/kGKCgoUKvVVAUgJAzuNoD/YSOiHdwZhomKinrmmWeoSlwGDx781ltvNbclxsFX3Bv5+Pi888477du3p0KR6tKly9KlS/v06UOFduWBBx6gkhbx8fGJi4ujKjs3e/Zszi8FQrHK4M78/20hr776qtX/DZib0Wg0x1PeAEzA4G4D+C/EWuvlu4WGDBkybdo0oZ4WblYSiWTy5MnPPvusiasEjrzH/U6+vr4ffvhhr169qFB0hg8f/v7777dt25YK7Y1Qg/uIESMc6hTIJvn4+EybNo2qzMvyW2XuFBsbu3z58h49elChbcM2d7AwR39ttQn2veLeKDU19ZVXXhH5AymdnJxeeukl8sgIzotMdXV1dnZmv6en59tvvz127FgqFAs3N7eXXnpp5syZ99664Aj8/f35f1xxcnJKTk6mKocwaNAg696ha/UlG19f30WLFjU+UppqbRUGd7Awu/27ZE/476CwiU14AwYMeOedd0R7flxkZOSnn37akh3PnAd3o9Eo/o9YrSWVSqdOnTpv3jxXV1eqtSaJRDJkyJBVq1YJtepsowIDA6mEkJSUxPk2D/vz1FNPPfLII1RlLtZdcW8klUonTZr04YcfduvWjWptUl5enl0e2QyihcHdBvAfu21l+bBbt25LliyJjIykQotSqVSzZ89euHBhu3btqJZheAzuDMMI8jw/EYqLi/v4449Fe05cUFDQ+++/P2fOHA8PD6q1czwHd4lEMnr0aKpyLA8//PCsWbMUCgUVCs/qK+63denS5cMPP3zhhRd8fHyo1sZ4enpWV1dTFYBgbGOec3D8V01s6MhFX1/fhQsX7tq1Ky0tTaPRULnZxcTEzJw509vbmwr/h8/gXl1dbU+HoN+pQ4cOb7/9dkZGxtdff11aWkrlFuLn5zd+/Pjk5GQ7vpTfKjxfbaKiouz1G5iPYcOGhYaGfvTRR9evX6daIYlncG+UmJgYGxv7008/bdu2jf+VZOtycnKKj48fMmRIWFgY1QIICYO7DeC/4i7yveP3Gj58eJ8+fdatW3f48GFrbfvu3bv3Qw89xOHeSp6DO5XYtvj4+KioqJ9++mnLli38b97go1OnTuPHj09MTMTIfqezZ89SiSn2/XxZPoKDg5csWfLNN9/s2bPHYjsrGhoaDAaDqM7bdXJyevTRR4cPH75z5849e/bY3DVGuVweERERHx8fHx/f5HHAAOaGwd0G8B/crXKVlqf27du/8sorly5d+vbbb0+dOkXlgpFIJLGxsRMmTAgNDaXaprm6uspkMm7Pu7W5tzEOlErlpEmTkpOTd+3atWfPHgt/VpFKpb169Ro5cmRsbCzVOpyKioqrV69SVbNCQ0M5fNB1HC4uLjNnzkxOTl6zZs1ff/1F5cKor68X4S0H3t7ekydPnjhxYnp6+i+//FJYWEh9hZUplco+ffoMGDAgKiqK87lhAILA4G4D+A9zNrRV5i7BwcELFiy4cOHCr7/+euDAAf6fYUzw8PCIi4sbPXp0QEAA1RJUKhW320z5/1nbCh8fn8cee2zixIkHDx7csWPHxYsXqa/gKyQkJDEx8YEHHmjVxieH8uuvv1KJKePGjaMSYDp37vzee+9lZWVt27bt9OnTVM6dj49P//79xXyDk1KpTElJSUlJOXny5B9//HHy5EmeO7WEJZFIgoODIyMjIyMje/bsKaoL176+vsOGDaMqU0R7DgSQJNbahwAtN2XKlKqqKqoypfExn1QldhqN5uDBg0eOHDl79qyAR557e3vHxsYOGDAgLCzMYXdNVFZWPv7441RlytNPP52SkkJVzcrPzz9+/PipU6cuXrwo4EYClUrVs2fPsLCw6Ojojh07UrlD0+v1Tz75ZGVlJRU2zd/ff9WqVTbxNAbxuHLlSnp6+uHDh2/evEm1LaJQKEJCQvr16xcVFdW5c2cqFxe9Xp+VlXX06NFjx45Z+ELcbS4uLiEhIV27du3atWuvXr1EeLECAIO7DRg3bhy3fRe3PfDAAy+99BJV2QytVnv27Nns7OwLFy5cunSptYs0Uqm0ffv2nTt3DgoKioiI6N69O/UV9s/qg/tt1dXVp0+fzsrKKigouH79emtvUHZzc+vQoUOHDh1CQ0PDwsI6d+6MUbKFdu/evWrVKqpq1jPPPIPj2zm7cOFCdnZ2Xl5efn5+eXk5lf+XXC738vLy9fXt3LlzSEhISEjIfffdJ6od7dwYjcbc3Nzz589fuHAhPz+/pKSE+gqOZDKZv79/x44dAwICOnXqFBIS0qlTJ7xigMiJ9yIaNKqpqeE5tTMM08JzDG2FUqns27dv3759G//xxo0bRUVF5eXlZWVlFRUV9fX1Wq1Wq9WyLOvs7Ozi4uLi4tL4A29v76CgoMDAQNvdO2T3PDw8EhMTExMTG/+xoqKiqKjo+vXrVVVVBoNBr9cbDAaDwWA0Gp3/X+MfsZ+fn7+/P1bIuNHpdD/++CNVNatNmzZJSUlUBc0KDQ29fVNNbW1teXn5rVu3qqqqWJaVSCRSqVQqlcpksts/8PT09PHxsdfdDlKptGfPnj179mz8x9ra2gsXLly+fLmioqKysvLWrVu3bt2qrKysra2VSCSN/1pkMlnjD26vRbIsK5VKb78+uLi4uLq6ent7e3t7+/j4NP5nu3bt7OBzDjgaDO5iV1FRQSU0f39/KrFh7du3b9++PVWBTWp8ow0PD6dC4GXXrl0tX+i91+jRo23xDnhxcnNzc3Nz43mgvj1xc3Pr3bt37969qRDAITjojl4bIsjgjrkWAJrT0NCwefNmqmqWm5vbiBEjqAoAAASAwV3sysrKqISGwR0AmrNjxw7O96QyDJOamooDrQEALAODu9jduHGDSggKhcL+njINAIKor6/fsmULVTXL1dU1NTWVqgAAQBgY3MWO/zFh/v7+uE0eAJr0888/c3vmQKORI0fieTQAABaDwV3sioqKqITQo0cPKgEAR3Tjxo2tW7dSVbOcnZ3HjBlDVQAAIBgM7qLGsuy1a9eoihAWFkYlAOBwWJZdtmwZn2eZpaam4vxNAABLwuAuasXFxVqtlqoIt0/DBQC4bfv27efOnaOqZrm5uY0dO5aqAABASBjcRS0/P59KCH5+fn5+flQFAI6lqKho/fr1VGXKgw8+iN3tAAAWhsFd1PLy8qiEgH0yAHAXo9G4bNkyPlfzPD09cZgMAIDlYXAXtZycHCohYHAHgLts2bKF56LAQw895OzsTFUAACAwDO7iVVVVVVBQQFWmSKXSqKgoqgIAB3L+/PmNGzdSlSn+/v7Dhw+nKgAAEB4Gd/E6fvw4y7JUZUqvXr28vLyoCgAcRUlJybvvvqvT6ajQlMmTJ8vlcqoCAADhYXAXrz/++INKCImJiVQCAI6irq5u4cKFVVVVVGhK9+7d4+PjqQoAAMwCg7tIlZSU8NzgrlAo4uLiqAoAHIJer3/vvfcKCwupkPDEE09QCQAAmAsGd5FKT0/nuU+mb9++OKwNABqtWLHizJkzVEVISkrq1q0bVQEAgLlgcBcjjUaze/duqiIkJCRQCQA4hB9++CE9PZ2qCCqVaurUqVQFAABmhMFdjLZu3VpZWUlVpnh5ecXGxlIVANi/n3/++fvvv6cq2iOPPOLp6UlVAABgRjgZQHQqKyu3bdtGVYTRo0fj2AcAWLdu3ebNm6mKFhQUNHLkSKoCAADzwmwnOmvWrNFoNFRliqura0pKClUBgD0zGo0rV6787bffqJAmk8nmzJkjleIKLQCAlWFwF5fdu3dnZGRQFSElJcXV1ZWqAMBu6fX6jz766OjRo1TYIqNHjw4NDaUqAAAwOwzuInLp0qUvvviCqggKhWL06NFUBQB2S61Wv/vuu/zPkGnk7+8/adIkqgIAAEvA4C4W2dnZH374Ic8nGjIMk5SUhKelAjisGzduvPfeewUFBVTYIlKpdM6cOUqlkgoBAMASMLiLwo4dO7766iuDwUCFBGdn54cffpiqAMA+HT169JNPPqmrq6PClho/fnxYWBhVAQCAhWBwt7KqqqqVK1cKtRV14sSJ3t7eVAUA9sZgMKSlpW3fvp0KW6FLly7YJAMAICoY3K0pIyNj9erV1dXVVNgiHTt2xO52AAd048aNJUuWnD9/ngpbwcXF5aWXXsJJMgAAooLB3Try8/PT0tLOnj1Lha3w1FNP4ex2AIei1+u3bNmyadMmrVZLta0zZ86c9u3bUxUAAFgU5jxLy8vL27ZtG/8zH+8SGxvbp08fqgIA+3HmzJnVq1cXFhZSYauNGzcuPj6eqgAAwNIwuFuIRqM5duzYzp07hb2c3cjV1XXatGlUBQB2oqSk5Pvvv9+3bx8VchERETF58mSqAgAAK8Dgbl4VFRVnzpw5cuTIqVOnGhoaqJyjp59+2s/Pj6oAwObduHHjxx9/3LdvH/9DqJoUEBDwr3/9C1vbAQDECYO7MAwGg0aj0Wg0lZWVxcXFN27cuHbt2rlz50pKSqgv5Wvo0KEJCQlUBQC2raio6Kefftq/f7+ZRnaGYdq0abNgwQI3NzcqBAAA68DgLoBr167Nnj2bqszivvvumz59OlUBgK3SarWHDx/eu3fvmTNnWJalcu6cnZ3feOONtm3bUiEAAFgNBncBtGvXTiKRmPU9tUlOTk6vvPIKHmoIYJcuXbq0e/fugwcP1tfXUy1frq6ub7zxRmhoKBUCAIA1YSOjAJRKpVUeezR9+vROnTpRFQDYpIyMjD179lhgandzc1u4cGHPnj2pEAAArAyDuzD8/f2pREiurq6vvvrqkCFDqBAAbFVUVBSVCKBNmzbvvvtuly5dqBAAAKwPg7swLDm4BwQELF68ODY2lgoBwIZ17drVw8ODqnjx8fFZtGhRUFAQFQIAgChgcBeGxQb3AQMGLF68uGPHjlQIALZNKpX27duXqrhr167de++9hxcTAAAbgptThWGBZ4O7u7s/+eSTgwYNokIAsBP9+/c301OWunXrNm/ePKvcnAMAAJxhcBeGuVfc4+PjZ8yY4enpSYUAYD/69u0rk8kEP7h92LBhM2bMkMvx+g8AYGPwwi0M8w3ubdu2nTZtWkxMDBUCgL1RqVTdu3fPycmhwpaSy+VPPfVUSkoKFQIAgBhhcBeGi4tLmzZtKisrqbAV2rRp89BDD6WkpGBhDMBhRUVFCTW4e3l5zZs3r3v37lQIAAAihYlQMO3btxdqcFepVA8++OCYMWOcnJyoFgDsWf/+/dPS0qiKhk3tAAB2AIO7YPz9/XNzc6mKEBAQMGLEiKSkJBcXF6oFAPvXqVOndu3alZSUUGGzXF1dJ02aNHLkSKkUx4gBANg2DO6C4bPNXSaTxcTEjBgxIjw8nGoBwLH0799/586dVNW0hISEJ554wst1clcSAAAgAElEQVTLiwoBAMAGYHAXDIfB3cnJqW/fvjExMVFRUW5ublQOAI6I2+AeEBAwY8aMiIgIKgQAAJuBwV0wLRzcFQpF586du3btGhkZ2bt3b6VSSX0FADi08PBwJyenhoYGKvwvZ2fnCRMmjB07Fve1AwDYGbysC6bJZzA5OTn5+fm1bdu2bdu2AQEB3bp1Cw4OxrspiE2bNm1+/vlnqgLrUCgUkZGRmZmZVMj4+PiMGjUqOTlZpVJRLQAA2B4Jy7JUAy11+vRphUKhVCob/9PNzQ2PTAIA/n799dcVK1aYCEJDQ0ePHn3//ffLZDITGQAA2DQs/QqpT58+VAIA0Gr9+vVr8udlMln//v3HjBkTFhbWZAAAAPYEgzsAgNj5+PgEBwdfunSp8R9VKlWfPn2ioqL69evn7u5u+msBAMBuYHAHALAB/fv3V6vV0dHRUVFRPXv2xJYYAAAHhD3uAAA2wGAwYFgHAHBwGNwBAAAAAGwAnoANAAAAAGADMLgDAAAAANgADO4AAAAAADYAgzsAAAAAgA3A4A4AAAAAYAMwuNup+kqGNVIRAAAA2Bu2roJKwFZhcLdTTirtr8uoCAAAAOwKe6vQcGY3VYGtwuBup2QKRq/T7f2M6gAAAMBe1Feqv54u65ZIdWCrMLjbLUX0Qw2/fao/vokKAQAAwPbpG9TfzJR6tpd4daRSsFUY3O2WxC9YFtSvYesCQ+5+qgUAAABbxho13z9vuHJaHv0QlYINw+BuzxRRD7FGg+b7ucZrf1ItAAAA2KqGnxfq/9orUXnLew6hWrBhGNztmTxiuMTZjdWq1Wkz2PIrVA4AAAC2R/fHat3RDQzDKPo+yMgUVA42DIO7XVM4yyNHMQzD1lWov3qSrS2jvgAAAABsif7kloY9Sxt/rMA+GXuHwd3OKaL/0fgDY/k1zdqpTP0t0z0AAADYCv2ZXQ2bX2/8sSywr8Qv2HQPtg6Du52TdgyTdejR+GNDSb76yycYTY3pLwEAAADxM5z7o2Hjy6zR0PiPt5fqwI5hcLd/8qj/XTgzFP2l/upJRltnogcAAACRM1w4rPnuWdaga/xHibObPGK46S8BO4DB3f4p+oyWKJxv/6PharY6bQaj05j4EgAAABAtY8FJzbpnWL329s/II0cxd7zXg73C4O4AnN3l4Sl3/oTh0nHNumeY//+YDgAAALbCWHhG/fV0Vqu+8ydxW6qDwODuEO7d96bPz9B89yxj1DfZAwAAgAgZi8+rv3qSbai98ydlHcOkHXs19yVgTzC4OwRpUD9Zx7C7flL/V7pm40vM/9/UAgAAAGLG3ryo/nIqW191188r4h9vsgf7g8HdUSjub+Jvtf7PXZrvn8O6OwAAgMgZb5yvX/MYW1tx189L3X3lkSOa/BKwPxjcHYU8YoTU3e/en9ef/VWzbhb2uwMAAIiWsShHvWbKvVM7wzCK2EfwtFTHgcHdYcgUirhJTf6KPnefBufMAAAAiJLxWrZ67eNsfeW9vySRK+WxTb+5g13C4O5AFDGPSOTKJn9Jn5+h/vopRlvf5K8CAACAVRgLTqq/eIJt5uGJ8t6jJCrvJn8J7BIGd0ei8pL3Tm3uFw2XMtVfPsFo/najOgAAAFiL4eKRe8+QuRNuS3U0GNwdi+m/4YYrp9VfPM6o775dHQAAACzMkHdAkzbjrvPa7yQLjpb6d2/uV8EuYXB3LFL/bvKQWBOBofCses0UtrbcRAMAAABmZcj5XbNuFqtrMNEomzovDuwbBneHo4ifYjowFOeqV01ky6+azgAAAMAc9Mc3ab57ltVrTTRSn06yHoNNBGCXMLg7HFmPJKnPfaYbY/k19aqHjUVnTWcAAAAgLF36Ss3m11nq8YiKAZMZicR0A/YHg7vjkUgUAyZTEWOsLVevmWLIz6BCAAAAEALLNmx7q+HX5VTHSJzcFP0nUBXYIQzujkgRNV7i7EZVDNtQp0mboc/6hQoBAACAH4NO8/1c3dHvqY5hGEbRfxzjpKIqsEMY3B2SUqWInkhFDMMwrEHX8MPLuoNfUyEAAABwpanVfPWk/sweqmMYhpHI5ArcluqoMLg7KEXCExKFE1UxDMOwLNuw833tfz6gQgAAAGg1tqZUveZR/cVjVPhf8t6jJF4BVAX2CYO7g5K4+SqiHqKq/9Ee+Kph44uMyTvcAQAAoFXYmxfVqx42XM+lwv+SSKXKgTOoCuwWBnfHpUiYJpEpqOp/dFk71Gsms3UVVAgAAAA0Q/6h+pX/MFYUUuH/yHolS/yCqQrsFgZ3xyVp4y/vO4aq/sZwNUv92QTjjTwqBAAAAFN0R77TfD2d1dRS4d8oBz1NJWDPMLg7NOXAGRKpjKr+xnirSL3qEUPufioEAACAprBG7fa3G35eSB7Wfhd5zySpfzeqAnuGwd2hSXzuk0eMoKq7sQ21mnUzdYfSqBAAAAD+rqFOkzZDe3g91TUBy+2Awd3RKQbNkLT+0Wus0diw472GrW8yrVwtAAAAcFjsrSL1yon68weosAnyLgOknSKoCuwcBndHJ23XRRY2hKqapjv2g+arJxl1NRUCAAA4OuPV0/UrJhhK8qmwaQostwMGd2D4XXrTXzhS/9k4443zVAgAAOC49Jk/qNdMYWs5nswmC+onC46mKrB/GNyBkXYMk3dLoKpmGcuvqVdO1Gf9QoUAAACOR69t2PyaZsubLI9noSiTZlIJOAQM7sAwDKMcxOsVgdWqNRtf0v7yLra8AwAA3MZWFqtXT9Id/4kKTZF1DJN15b6+BvYEgzswDMNIg/rJQ2KoiqDNWKdeM4WtLaNCAAAA+2e4eKT+03GGwjNUSFAmPUMl4CgwuMN/KZOfpxKaoeCE+pOxxqunqRAAAMCe6Q58qfnySf6PG5d1iuB8hgTYHwzu8F/S+/rIeyZRFc1YfVP9+WTdke+oEAAAwB5p6zXfzW34z4etfb5Sk5QpL1AJOBAM7vA/ymHPS6QCfEuwBl3DzwsbfniZ0dZTLQAAgP0w3rxQ/9kE/ZndVNgi8i4DZCFxVAUORIApDeyGtH1Xee/RVNVSutPb6z8Za7x+jgoBAADsgf74JvWn4403L1JhSymTsdwOf4PBHf5GOXSORK6kqpYylhWoV/5Dx+nBzgAAADajoa5hwwuaza+zOg2VtpQ8PFkaEE5V4FgwuMPfSLwCFNH/oKpWYPXahu1va76dxairqBYAAMD2GIvO1n/yoC57JxW2gkQqcxr2HFWBw8HgDndTJD0jUbpSVevoc36vXz7GWHCSCgEAAGyJLuMb9apHjOVXqbB15P3GSfyCqQocDgZ3uJvEzUfxwFSqajVjZbF6zWTdH6sZlqVaAAAA0auv1Kx7uuGXRXweidokicJJOWQ2VYEjwuAOTVAmTJOovKiq1VijoWHPUs2XT7DVN6kWAABAvAyXMuuXj9H/lU6FXChiH5V4tqcqcEQY3KEpTirlwBlUxJH+wuH6ZaP0gu4FBAAAsBCDTvufDzRrpxirblApFxJnN+Ugc70Fg63D4A5NU8Q9KjXbx322vkqz4YWG75/HHasAAGBDjMW56k/Gag98xZpt26cy4UnGtQ1VgYPC4A7NkCvNvcFO9+d/6peOMuQdpEIAAABrY426fWvUn00wlORTKXdSNx/F/VOpChyXxHwfGcHmsUb1J2MNxblUx5ci9hGnkf9iFC5UCAAAYAVsxTXND68YrpyiQr6cx78jj3qIqsBxYcUdmieRKlNfoyIB6I5uqF8+xng1iwoBAAAsTZ/5Y/2y0RaY2mUde8r7T6AqcGhYcQeC5ru5+jO7qUoAEqlMkThNOWQOI1NQLQAAgNmx1Tcbtryuz91PhcJwnfm9NKgfVYFDw+AOBLbyev3HKayugQqFIW0b4jz+HWlgXyoEAAAwI/3xTQ07P2A1NVQoDEXkSKdHllAVODoM7kDT/vaJdu8KqhKMRCJRxD2qTHmREfoBrgAAACS24lrD5tf1F49SoWAkShfXF3fj7HYgYY870JQDp5vvaMh7sSyrPby+fslIQ94BqgUAABAOa9Qd/Kp+6ShLTu0MwygTn8LUDi2BFXdoEX32Ts2GF6hKeIq+Y5xGzceJtgAAYG7GG3kNP803FJ6hQoFJ23RwfWk3I3eiQgCsuEPLyCNHyoL6U5XwdKd+rlsyXP/nf6gQAACAK4NO+9sn6k/HWX5qZxhGOfJfmNqhhbDiDi1lvP6X+rPxrNFIhWYh7zHIafQbEq+OVAgAANAKxssnNNsWGEsuUKFZyIKjXaZ/S1UA/4XBHVqhYcsbuswfqcpcJApnZdLTioQncV4kAADwx9ZVaP/zge7kNio0F4lU6jJnm9S/GxUC/BcGd2gFtq6i/qNhFjsbq0lSv85OY96UhQ6gQgAAgGawrP7YhoY9S1l1NZWakSLmYaexb1EVwP9gcIfW0R36umHH+1RldvKI4U6j5ks82lIhAADA3xgLzzRs+7eh8CwVmpfExUP18q+MqxcVAvwPBndoJaNB/dk4w/VcqjM7iZNKOWS2Iv5xRiqjWgAAAIZRVzXsXqI//qO17te6k/O4t+XR/6AqgL/B4A6tZiw8o175DzG86jEMI2vXxenBBdLOUVQIAAAOTX9yS8N/PmLrKqjQEmRB/V1mfkdVAHfD4A5caH95V5uxjqosRxE5Ujn8JUmbDlQIAAAOx3gtu+GXdw1Xs6nQQiRypevcnyV+wVQIcDcM7sCJtr5+yQhjZTHVWY5E4aR44J/KgTMYpSvVAgCAQ2Crbmh3LdZl/UKFFqUcMkc5ZDZVATQBgztwZDj3h/qbmVRlaVJ3P2Xyc/J+4xmJhGoBAMB+6dTafWt1B75kdRoqtShp2xDXuT/jXGPgBoM7cKf5bq7+zG6qsgJZhx7KUa/KgmOoEAAA7JD+1Dbt7iXG6hIqtDSJROIyfb20sxWeRA72AYM7cMfWlNZ/PNy6x7qbIA8b6jTiFYnPfVQIAAB2wlhwsmHHIqsf9dgcRfQ/nMa9TVUAzcLgDrzoj23UbF1AVVYjkSsVcY8pB81gXNtQLQAA2DC2/GrD7o/FeR24kdTd1/WFXYyLBxUCNAuDO/ClXj3JUHCSqqxJ4uyuTJymuP9xRuFCtQAAYGPYmlLt3hX645tYg55qrcl50lJ5xAiqAjAFgzvwxd68WP/Jg6xeS4VWJnX3VSQ9o4iZyEjlVAsAALZAU6Pdt1Z3eB2rVVOplcm7JzpPXUNVAAQM7iAA7W+faPeuoCpRkHp3Ug59Vt47FcfOAADYMH2D7vC32n1r2PoqKrU+idLV9YWdeNgI8IfBHYRg0NUvH2O8eZHqxELWvpsy5QVZ94FUCAAAImM06E9s1v7+mQgPjWmOU+p8RfzjVAVAw+AOwjAWnlGveljk+wvvIgvq55TyojSoHxUCAIAo6M/s0v663Fh6mQpFRBYc7fLUOlzmBUFgcAfBaH//VPv7Z1QlOvLQOOXg2ThVFwBAzPRnduv2rjDcyKNCcZE4ubk+t13i1ZEKAVoEgzsIx6hXr/iHoSiH6sRIHhKrHDJb2jmKCgEAwIJYVn92t+73FYaSfCoVI+cJ78r7T6AqgJbC4A5CYm9erP90LKtroEKRkgVHK4fMxiNXAQCsj2X1Z3Zp964wllygUpGS9xjk/PhqqgJoBQzuIDDdoa8bdrxPVaIm69xfOWSOLCSWCgEAwAwaR/bfP7OhMw/uJVF5uz6/Q+LmQ4UArYDBHYTGsuq1UwyXMqlO7P6vvTuPrruu8z/+/XyXe2/WNkuTNEubpm2apqVt2lLo3kJRVCyCMyqIGyDqOO4z6u83MjqOv58/f85Rzw8XHAYHUVYRBARkKRSB7rQ03dI26ZZuSZqt2e7yXX5/tFrhFN5NenOX730+Tk5P6Hl+czwmhFduvotRPT+w6h+NKQulEAAQJ55rb386+uLP03qyn5F10/8zZr5bqoDhYbgj/rzuY4M/We1F+qUwDRiVM63lnzZnvpsbAgDAKLKj9pbfR1+52+1sldI0YDWsDn74h1IFDBvDHaPC3vJI+JF/kaq0oRdPDCy7xZx7nWYGpBYAMBxDp2Mb7o+9dq/b3yml6UEfU5b9lT9qoTwpBIaN4Y7REv71Z+09L0lVOtHziq1FH7cW3si3YwC4eN7pttgr98Q2PeRFBqQ2bSilQrf8ypiySAqBkWC4Y7R4/Z2DP77GG+iSwjSjgrnWZR+ylnxK5ZdILQDgPLyOA9GX77K3Pek5MalNM4FFNwVW3y5VwAgx3DGKnJ3PDv32i1KVlpRhmQ2rraWf0kunSi0A4Cz30OvRP9/t7HnRl/NDL67O/tLjmhWSQmCEGO4YXZFHb49teliq0pg5ZZG1+ONG3QquXgWAt+XE7O1Px177dZo+pO9CKDOQ9bkH9YoZUgiMHMMdo8yODP3079LuIdXDpRdNsBZ9zJr/QS2YI7UAkEG8/s7YhgfsjQ+4faekNr0FV3/LWvQxqQIuCsMdo87rODB4x/VedEgK054K5lrzr7MWfUwVTZRaAPA599iu2Gv32o1Pe3ZUatOeOeOq0Md+KlXAxWK4IxHs1x8L/+6bUuUTSilj2nJrySe4qwCATOQ69q7nY6/d6xx6XUp9Qi+oyP7iH7SsfCkELhbDHQkSefgbsa1/kCpf0UsmW5ffaM29lttHAsgEXl+HvfmR2KaH3J4TUusfyrCyPnufXjVbCoE4YLgjUWJDg3d80AdPsR4uZYXM2e+1LvsI39YB+JWz/7XYxgedPS96ji21fhN83zespTdLFRAfDHckjnty79DP/t6LRaTQn4zxddZlHzYbruUCVgD+4A102Vt+H9v0kNvZKrX+ZNYtD33yP6UKiBuGOxLK3vRw+NGMfjKFCmSbc66xLvuwXjFTagEgRTktG+yND9m7nvffE5QunD6mNPtLj2vZBVIIxA3DHYkWeeCrse1PSZX/GRUzrMs+Ys56rxbKlVoASAlef6e97YnYpofcjoNS63NKN7Ju+41ePU8KgXhiuCPhIgODd1znnjosdRlBmQFj+hVWw2pj2jLNsKQcAJIhFrZ3vWBve8LZ/6rnOlKdEYLv/oq18rNSBcQZwx1J4B7fPfTzD2fCnX0vnMoea856j9WwWp84V2oBICE812leb297wt71vBcZkOoMYk5dHLr5bh6YjcRjuCM57M2/C//+W1KVifTCKrNhtdXwflU8SWoBYFS4x/fY256w33jS7euQ2oyjjy3P/sKjWg6ntiMJGO5ImsgfvhPb8IBUZS6japbZsNqc/T6VUyi1ABAHXs8J+40nY9sed9uapTZDKSuU9bkH9PJ6KQRGBcMdyePaQ//58cx5tN7IKMM0piw2G1abM1ZpVkjKAWD4wn32jj/Ftj3hHtzMKnhnoY/8hznn/VIFjBaGO5LJ6+8cuuM6t7dNCqGpYI458yqz4Vpj8uWa0qUcACROzNn7cmzbE86el7jo6EIElt4ceN83pAoYRQx3JJl7dMfQnTfy34wLp+eXmLOvMRtW6+XTpRYAzsM9vDW27Qm78RlvsEdqcZY5dVHo5rt53QTJxXBH8tmvPxb+3TelCm+ll06xGq41Z79PFVRILQBoXseB2BtP2tuedLsy9EGnI6YXVmV/4fda1hgpBEYXwx0pIfrk96Kv/UaqcH5GxQxzxlXmzHepkslSCyDjuMd32zufs3c+57a3SC3OQwWys/7hQb1smhQCo47hjtTgOuG7P2W3bJQ6vBN9XI054ypz5lV65SVSC8DXPM89vNXe+Zy963m3+5hU452EPvoT85L3SBWQCAx3pIyB7sE7rnd7jksdZPrY8eaMVcaMdxmT5nNGJpBBnJjTssHe+Zyze43b3ynVkAVWfCZw9VelCkgQhjtSiHt8z9AvPuLFwlKIC6VyCs36K8zpVxhTF2lWlpQDSE/hPnv/q86uNXbTWi/cJ9W4UOa05aFP/pInpCJ1MNyRWuw3/hh+8GtShWFTZsCoWWDUrTDrVqjCKikHkAbc9manaa3dtNY9vM1zbCnH8OjF1dn/+IgWypNCIHEY7kg50Rd+Gn3hDqnCyOnjasy6FUbdcmPSfE03pRxAKrEjTstGu2mt07SWk9dHj8opyP6Hh1TRRCkEEorhjlQU+d03Yq//QapwsVQw16hdbNatMKYtU7nFUg4gabye407Ty3bTWqdlA+cTjjZlBbNuvUefOFcKgURjuCMluXb4V7fazeulDvGhlNLLphlTFxlTFhmTLtWskHQEgNEXGXBaNjjN6+zm9dzJMWGUUsEbf8xtZJCaGO5IVeH+wV982G1rljrEmTIDxsQGY8oiY+pivWIGN6UBEsq13SPb7f2vOc3r3NZGz3WkAxBnwff+s7XsVqkCkoPhjtTl9Rwf+tmH3L4OKcRoUVn5xuTLzSmLjKmLONcTGD1u236neZ2zf51zcLMXGZByjBbr8huCH/iOVAFJw3BHSnOP7Rr65U1edFAKMer0ggqjZoEx6VJj0qWqaIKUAxC47c3ugc3Owc3OgU28QpEKzLrloU/cya8ZkcoY7kh1zp6Xwr/5PL8vTil6fokx6VJj0nx90qV66VQpB6BpmqZ5rnt8j3Nws3Nwi3NoizfQLR2AxDEq6rM+c58WyJZCIJkY7kgDsfX3RR7/rlQhOVT2WGPSfGPSfGPSpXp5PS9WAW/ixNyjO5yDW5yDm51DW71Iv3QAkkAfOz7r8w+rvBIpBJKM4Y70EH3qB9FXfiVVSDIVzDGqZusTZhsT5hhVs7WcAukIwIe80+3ukTecI284rdvdozu8WEQ6AsmkQrlZn31AL6uVQiD5GO5IE54Xvv9L9o5npQ4pRC+qMqrm6BPmGBNm6+PrNMOSjgDSkx1xj+50Wrc7R95wj2x3e09KByBVKMMMfeouY8oiKQRSAsMd6cOODP3qFufAZqlDKlJmQK+YYUyYo0+YbVTOUgUV0hFASvNOHXRaG50j290jb7gn93qOLR2BlKOUCn7oB2bDtVIIpAqGO9JKZGDoro87R3dKHVKdyh5jlNfr5fV6xQyjfLoqnqQpJR0EJI/ruO3N7vE97rFdzrHd7okmzlb3geC1/2ot/KhUASmE4Y50M9g9eOdHeYigz6hAtl4+3SifrlfM0Mvr9dIpmm5KBwGjyY66J/e6x3Y5x3e7x3a7J/d6dlQ6Bukk+K4vW1d8TqqA1MJwR/rxTrcP3XmD23VUCpGulBnQy2r1sml66VS9bKpeWqvyudsDRpfXddRt23/27UST297CXWh9LLDs5sB7vyFVQMphuCMteV2tQ7+4gUeWZA4VytPLavXSKXpprV46RS+rVTmF0kHA2/J6T56b6Sf3u+0tPOgtc1gLPhS8/t+lCkhFDHekK7dt/9Avb/IGe6QQ/qRyCo2yqXrpVFU8SR9XrRdVq4Jy7iKP83BiXlere+qwe+qQ23HgzFj3wpyhnqGsWe8N3vAjLqpBmmK4I425rY1D//VJLzIghcgIygyowiq9uPrMmyqu1sdV80SVzOJ5Xs+xMxvdO3XQPXXYPXXQ6z7OSS84w5y2PPSJn3MJDdIXwx3pzWnZEP7vT3PRGN6OCmTrxRNVcbVeUKEXVKiCSlVQrhdUaFaWdChSW7jP7T7mdR91u4973cfc7qNux0Gvq5XvBng7xqT5Wbf8SjODUgikLoY70p6ze034vi9yE2UMi8op1Asqzox4VVCpF1SoseV6QYUWzJEORWINdp+d5j3HvO5jbvcxr/u4232Uc10wLEbFjKzbfsO/4Eh3DHf4gb3ticjDX+eLGRdPBXNUfomeX6LySlT+2Tc9v1Tll6i8cZoVkj4Ahi/c5/V1uKfbvNPtZ97cvo6/vN/GK+i4eHrJ5OzP3qdlF0ghkOoY7vAJe9NDkce+zdczRpUK5Z3d8bmFKqdAZReonALt7Dtn/masZljSh8kksSFvoNsb6PYGu9/6Tv+ps+s8FpY+CjByevHErNt+yy1l4Q8Md/iHvfl3kUdv50sayaVCuX/d9Cp7rBbMVcFcFcpVoVwtmKtCeX/zTo4WzE2zoR8Le5F+Ldznhfu9SL8WHvDCfV6kXwv3e5F+L9ynhfvftNFjEekjAqNIL67Ouu03rHb4BsMdvmJveSTy6O2e60ohkCqUFdSCOcrK0qyQMgOaFVJmULOCmhlUVuivf3n2Hw1L0w1N6UrXz7xz9s8z7+i6Uoam65rSNc/TPFfzXM91NNfVvL/86Xma63iuo3mudubPWMSzw1os6sXCmh3WYhHPjvzlL8+948WGtHA/t2dBGtHH1WTd9mtuLQU/YbjDb+zXH4v8/n+y3QEgk+klk7Nuu1flFkshkE4Y7vAhe+vjkUe+yXYHgMykl07J+vS9KrdICoE0w3CHP9lvPBl5+Bv8Wh8AMo1RVhv69K9VTqEUAumH4Q7fsrc/FXnon9nuAJA5jPF1WZ++hzs/wq8Y7vAze8czkQf/iWczAUAmMMqnZ916j5Y9VgqBdMVwh885O58NP/BVtjsA+JtRUZ916z1a1hgpBNIYwx3+5+x6IXz/lz0nJoUAgLRkVM7MuuW/tax8KQTSG8MdGcHZ++fwfV/0okNSCABIM0bNpVkfv1ML5UohkPYY7sgU7pFtQ/d8xhvslUIAQNow668M3fgTzQxIIeAHDHdkELe9OfxfN7un26QQAJAGrPkfDH7we5rSpRDwCYY7MovXc3zo7pvdjoNSCABIaYHltwbe889SBfgKwx2ZZ6B76L9vdY7ulDoAQCpSSgXe+3Vr6c1SCPgNwx0ZKToQvvfzdvN6qQMApBZlmMHrv2fOu04KAR9iuCNTObHwg1+zdzwrdQCAVKGsUOjGnxjTV0oh4E8Md2Qwz4v84duxjQ9JHQAg+VQoL+uTv9Sr50kh4FsMd2S66HM/ib74C6kCACSTnjcudMvdetk0KQT8jOEOaLH190Wf/F+e60ghACAJ9HE1WTffpQoqpRDwOYY7oGlnHq16/1e8SL8UAvlrih0AABrbSURBVAASypyyMHTTHVooTwoB/2O4A2e5J/eF7/mM23NcCgEACWIt+FDwA9/WdFMKgYzAcAfO8fo7w7/+rNPaKIUAgNGldD1w9T9Zy26RQiCDMNyBN7Mj4Ye/YTc+I3UAgNGiAtmhj/zQqF8lhUBmYbgD5xF97sfRF++UKgBA/On5paFP3qmX10shkHEY7sD52Vsfjzz6Lc+OSiEAIG6MivrQJ36p8kukEMhEDHfgbbmHXh/6zee9gW4pBADEgTljVegj/6FZWVIIZCiGO/BOvM4jQ/d8xu04IIUAgIsSWHZz4D1f15SSQiBzMdwBydDp8ANfsfe9KnUAgJFQZiD4gW+b8/9OCoFMx3AHLoDnRZ//SeylX/LvCwDElz52fOimO/TKS6QQAMMduGDO7jXhh7/uhXm6KgDEhzllUejGH2nZBVIIQNMY7sCweJ2Hw/d+3mnbL4UAAEFg+acDV39VU7oUAjiL4Q4MU2wo8si/xLY/JXUAgPNTwdzQh/6PMeMqKQTwJgx3YCRir94TfeaHnmNLIQDgTfSSyVkf+6kaVyOFAN6K4Q6MkHtwS/j+L7l9p6QQAHCWecnVob//vhbIlkIA58FwB0bO62sP//aLzuFtUggAmU7pRuDqr1nLbpFCAG+L4Q5cHNeOPPm/Y+vvkzoAyFwqtzB0w4+NyZdLIYB3wnAH4sDe8Uzk97d74T4pBICMY05ZGPzw/1V5JVIIQMBwB+LD6zkefuBrzuGtUggAmUIZZuCqL1nLP60pJbUAZAx3IH5cJ7rmp7GX7vRcV0oBwOf0wqrQDT/Sq2ZJIYALxXAH4sw9uDn84D+5vSelEAB8y5pzTfC672rBHCkEMAwMd2AUDPWGH/kXe9fzUgcAfqOCOcHVt5vzrpNCAMPGcAdGi73hgchT3/diESkEAJ8wKmeGbviRKpoohQBGguEOjCK3bX/kga86J/dJIQCkN6WUtfRTgXd/VTMsqQUwQgx3YJTZ0cgfvx/bcL/UAUC60vOKgx/6gTF1iRQCuCgMdyARnD0vRR77V/d0uxQCQJoxZ14VvO67KqdQCgFcLIY7kChDpyNPfi+29XGpA4D0oHIKgqtvN2e/TwoBxAfDHUgoZ8+LkUf/1e3rkEIASGnmjKuC1/2byi2SQgBxw3AHEm6oN/LE92LbnpA6AEhFKntscPXt5pxrpBBAnDHcgeRwdq+JPPZtXnoHkF7MGauC1/2byi2WQgDxx3AHkmeoN/L4v8feeFLqACD5VPbY4OpvmXPeL4UARgvDHUgyZ/cLkce+7fadkkIASBqz/srg9d/lhXYguRjuQAoY7Ik88e+xN/4odQCQaCp7TPD93zIbVkshgFHHcAdShbPvz5HHv+t2tkohACSINffawPu+yT3agRTBcAdSiR2JvviL2J/v9uyolALAKNJLJgc/8B2jZoEUAkgchjuQcrxTByOPfcdu2SCFABB/ygoFrvictewWzbCkFkBCMdyBFGVveyL69A+4aBVAIpl1y4PX/qsqqJRCAEnAcAdSWLgv8qcf2Zse9FxXSgHgouhjyoKrv2XMuEoKASQNwx1Ide7RHZHHvu0c2yWFADASyjCtxR8PrPqCFsiWWgDJxHAH0oHnxtbfF33uJ164X0oBYBiMiXOD131HL5smhQCSj+EOpA2vryP67I/srX/gzBkAF0/PLw28+yvmvOukEECqYLgDacY9vif61Pftlo1SCADnpwJZ1rJbAstv1awsqQWQQhjuQFpydq+JPPNDt+OgFALAOUopc+61gXd/TeWXSC2AlMNwB9KWa8fW3x9d8zNvsEdKAUAzahYEr/kfenm9FAJIUQx3IM0NnY6u+Vls/X2eE5NSABlKL54YfM/XjRmrpBBASmO4A37gdR6OPP1De9fzUgggs6jsMYEr/sFadJOmm1ILINUx3AH/cA5sij71fefYbikE4H/KsKzLbwis+kcta4zUAkgPDHfAb+zGp6PP3+F2HJBCAP6kdN2c8/7Aqi+owiqpBZBOGO6AH3muve2J6Jqfup2tUgrAP5RSxiVXB6/6ohpXI7UA0g/DHfAv17a3PBp98eduzwkpBZD2zPorA1d9SR/PM1AB32K4A37nxGIbH4q9dKfb1yGlANKSWbs08K4v6ZWXSCGA9MZwBzKDHYmtvy+69i5voEtKAaQNc/JlgXd9WZ84VwoB+AHDHcgk0cHYa/dG/3y3N3RaSgGkNGNiQ+BdXzYmXy6FAPyD4Q5knnBf7LVfR9f91hvollIAKceonh+44jNG7TIpBOA3DHcgU8XCsc2/i/35V27PcSkFkHxKKWP6ysCK2/QJDVILwJ8Y7kBmcx17+x9jL/+Xc3KflAJIDmVY5pz3BZbfpkomSy0AP2O4A9A0TXOa1kbX3uUc2iKFABJHBbKtBX9vLb1ZjSmTWgD+x3AHcI57eGv05bucPS/xnQFILpVTGFj0UWvRx7SsMVILIFMw3AG8ldveHHv5LvuNpzwnJrUA4kwvqLCW3mxd+neaFZJaAJmF4Q7g/Lzek7H198U2P8Kt34HEMCbOtRbdZF5ytaYbUgsgEzHcAbwjO2o3Ph1b91vn6A4pBTASygqZc66xFt6kl0+XWgAZjeEO4IK4rY2x9b+1G5/x7KjUArggemGVtfBGa/4HOZEdwIVguAMYjoHu2KaHYxsfcHtOSCmA81NKGVOXWItuMqYt15SScgA4i+EOYPg819m9Jrbut3bLBikFcI4K5VnzP2gtvFEVTZRaAHgrhjuAkfPaW2Ib7o+98aQ32Cu1QEYzKmZYl33YbFitWVlSCwDnx3AHcNGcmL3reXvLo07za57rSjWQQfTcIrNhtTnver2sVmoBQMBwBxA33ul2e+sfYq8/6nYclFrAz5RhGXXLrXnXG3UruLcjgHhhuAOIP/fIttiWR+3Gp71wv9QCvmKMrzPnXWc1XKvlFEgtAAwPwx0pynXdSCQSDocjkYjneWe+UP/65arrenZ2dlZWViAQeMcPg6SyI/aOZ+3XH3Na1vOtBv6mcgqsOdeY867Xy+ulFgBGiOGO5BsaGurt7e3t7e3p6ent7e3r6wuHw9HoBd0s3DCMrL8YM2ZMUVFRUVFRfn6+dBwSyus5bm993G582jm5T2qBdKKsoDFtmTVntTF9pWZYUg4AF4XhjuTo6upqa2trb29va2sbGBiQ8uGxLKuwsLCoqKi4uLiioiIUCklHIEG8jgN24zN24zNO236pBVKXsoJG7TJz1nvM6Su1QLaUA0B8MNyRONFo9OjRo0eOHDl27NgFvqB+8ZRSxcXFEyZMqKqqKijglNNU4XUcsBufjjU+47Y1Sy2QKpQVNGqXmpe8x6xfqQVypBwA4ozhjlEXjUYPHDhw+PDhkydPukm9V2Bubm5lZeXkyZNLSkqkFgnitbfEGp+xd7DgkbqUGTCmLTMvudqsv4K9DiCJGO4YRW1tbXv37j106JDjOFKbUAUFBXV1dZMnT7YszklNFW57s934jL3jTyx4pAhlBY2pS8xLrjbrr9SC7HUAycdwR/zZtr137969e/f29qb00zQty6qpqamrqyssLJRaJI7XddRuWus0rXUObPTsBJ1SBfyVPna8MW25WbfCmLJQs7hCBkAKYbgjnqLR6J49e3bt2hWJRKQ2hZSVlc2bN4/zZ1JObMhpXm83rXWaXnZ7T0o1MHJKN/QJc8y6FUbdcr1smpQDQHIw3BEf0Wh0586de/bsSdhVp3FXVVU1b948LmBNTe6JvU7TWrtprdv6hpfUKyXgJyp7rFm71KhbYU5bqmWNkXIASDKGOy6W53lNTU3btm1Lr1fZz0spVVNTM3fu3NzcXKlFkgz22PtecZrWOs3r3f5OqQbeSum6Pr7OqF1q1q3QJ8zRlC4dAQCpguGOi3LixImNGzd2d3dLYTrRdb2+vn7u3LmGYUgtksltb3ZaNjoHNjoHNnsDXVKOzKWU0sumGZMvM2oWGJMWaFk8ow1AWmK4Y4TC4fC6desOHz4shelqzJgxixcvLi0tlUKkBPfkPufAX0b8YI+Uw/+UUnrpVGPyZUbNZcakS7XssdIRAJDqGO4YiUOHDq1fvz4cDkthelNKTZ8+ff78+bz0nl7cE03OgY1Oy0bn4GZv6LSUw1f00ilGzWXm5MuMSQu0HC5ZAeArDHcMTzQaXb9+/YEDB6TQP/Ly8pYsWVJWViaFSD2e557c5x5tdI5sd1sb3fZmz02tRwrg4qmsfKNypl4126iapU+Yo3K4uysA32K4Yxja29tfeumlwcFBKfQbpVRDQ8Ps2bOlEKktNuQe3em0Njqt293WRrfnhHQAUpEyA/r4OqNqll45y5gwSxVPko4AAJ9guONCNTU1bdy40c3gO/FVV1cvXbrUNE0pRHrw+k+5R7Y7Rxvd1kandYcX7pOOQNLoxdVG1Sy9apZRNVsvn64ZPPMYQCZiuEPmuu66dev2798vhf5XWFh45ZVXcrNIX/K6j7kn97lt+92T+9yT+9xTB3lua7KonEKjrFYvm6qX1upltXrpVC2YIx0EAP7HcIcgHA6/8MILHR0dUpgpQqHQypUrOeXd/1zHO3XIObnXbdvvntzvtu3zulp59tNoUMEcvXSKXlqrl03Vy2r10lqVWyQdBACZiOGOd9Lf3//cc8/19vZKYWbRdX3x4sVTpkyRQvhLLOy2N7ttzW7nEa+r9eyfPARqOJQZUGPL9cIqVVilF03Qi6v1sqmqoFI6DgCgaQx3vIPe3t5nn312YGBACjORUmrJkiVsd2jRQber1etqdbta3c6z73jdxzjNRmWP1Ysm6IVVqrBSL5qgCqv0wio1ZrymlHQoAOD8GO44v1OnTj333HORSEQKM5dSavHixVOnTpVCZB7P83pPej3H3b4Or++U19fu9Z3y+jrOvg10+eOUG2WFVP44lTtO5Y/T88apvHEqr1jllaj8Er2gUgtxKQgAxBnDHefR2dn5pz/9KRrN9JcMRUqpRYsW1dbWSiHwNzzX6+9885Tv9iL9XrhPC/d74T4v3K9F+r1wnxcdkj5W/Cnd0II5KpSnQnlaMFeFclUoVwvlqVC+yitSeWc2erHKK+GCUQBIMIY73qq3t/fpp5/2/VNR40UptXDhwmnTpkkhMHyuc3bBhwe0cJ8X7vPsiObYmmtrTkxzbM91NDemObbm2N5f/lJzbc11NKU03dR0UzNMZZiabmmGqRmmpp/5R1MzTM2wlGFpgWwVyv3rTNcC2dL/LABAcjDc8SYDAwNPPfUU57UPi1JqxYoV1dXVUggAADByuhQgg0QiEa5GHQHP81555ZXOTu4uAgAARhHDHWd5nvfiiy9y58eRsW17zZo1Q0NJOCMZAABkCIY7ztq0adPJkyelCm9rYGBgzZo1ri/uFgIAAFIQwx2apmnNzc27d++WKgg6OjpeffVVqQIAABgJhju0zs7OdevWSRUuSEtLy549e6QKAABg2Bjumc5xnJdfftlxHCnEhdqyZcvp06elCgAAYHgY7plu8+bNXJAaX7Ztc8IMAACIO4Z7Rjt+/HhTU5NUYdja2tp27twpVQAAAMPAcM9c0Wj01Vdf5Qlco2Tbtm38KgMAAMQRwz1zbd26lWctjR7btl955RV+LgIAAPHCcM9Q3d3de/fulSpclI6Ojv3790sVAADABWG4Z6gNGzbwqKAE2LZtG3fsAQAAccFwz0QHDx7kIamJMTg4uGvXLqkCAACQMdwzjuu6W7ZskSrEzY4dOyKRiFQBAAAIGO4Zp7m5ub+/X6oQN9FodPv27VIFAAAgYLhnFs/zGhsbpQpx1tTUxA18AADARWK4Z5aWlpa+vj6pQpw5jrN7926pAgAAeCcM9wzieR7nbCTL/v37ub0MAAC4GAz3DNLa2nr69GmpwqiIRCItLS1SBQAA8LYY7hmEJy4lV1NTk5QAAAC8LYZ7phgYGDh27JhUYRR1dna2t7dLFQAAwPkx3DPFvn37PM+TKoyuPXv2SAkAAMD5Mdwzgud5+/btkyqMusOHD9u2LVUAAADnwXDPCG1tbYODg1KFUec4DicsAQCAkWG4Z4TDhw9LCRKEzwUAABgZhntGOHLkiJQgQY4ePcrFBgAAYAQY7v7X2dnZ398vVUiQSCTS1tYmVQAAAG/FcPc/zs1INfwCBAAAjADD3f9OnDghJUio1tZWKQEAAHgrhrvPOY7T2dkpVUio06dPRyIRqQIAAHgThrvPdXR0OI4jVUg0fpoCAADDxXD3Oa6DTE2nTp2SEgAAgDdhuPtce3u7lCAJGO4AAGC4GO4+19XVJSVIAk6VAQAAw8Vw97NYLDY4OChVSIL+/v5wOCxVAAAA5zDc/aynp0dKkDTd3d1SAgAAcA7D3c96e3ulBEkzNDQkJQAAAOcw3P2MV9xTGWcxAQCAYWG4+xnTMJXx2QEAAMPCcPczTsZIZQMDA1ICAABwDsPdz7hvSSrjxyoAADAsDHc/Y7inMk6VAQAAw8Jw9zOGeyqLRqNSAgAAcA7D3bdc13VdV6qQNHx2AADAsDDcfcvzPClBMjmOIyUAAADnMNx9i+Ge4njFHQAADAvD3bcY7qmP7Q4AAC4cw923GO6pTyklJQAAAGcx3H3LMAwpQTIZhsFwBwAAF47h7luGYeg6n9/UZVmWlAAAAJzDsPOzQCAgJUgahjsAABgWhrufMdxTmWmaUgIAAHAOw93PGO6pLBgMSgkAAMA5DHc/y8rKkhIkTW5urpQAAACcw3D3s/z8fClB0jDcAQDAsDDc/SwvL09KkDR8dgAAwLAw3P2MaZjKcnJypAQAAOAchrufcapMKuOzAwAAhoXh7md5eXk8PzU1hUIhXnEHAADDwnD3M6VUUVGRVCEJiouLpQQAAOBNGO4+x0BMTfxABQAAhovh7nPjxo2TEiQBwx0AAAwXw93nGO6pic8LAAAYLoa7z+Xl5WVnZ0sVEqqgoIBPCgAAGC6Gu/9VVlZKCRKqoqJCSgAAAN6K4e5/DPdUw3AHAAAjwHD3v4qKCl3nE50qTNMsLS2VKgAAgLdiz/mfaZplZWVShQQpLy/nqVgAAGAEGO4ZYeLEiVKCBKmpqZESAACA82C4Z4Samhpe5U0FlmVNmDBBqgAAAM6D4Z4RAoFAVVWVVGHUVVdX8xMUAAAYGYZ7ppg6daqUYNRNnjxZSgAAAM6P4Z4pKioqeOhPcuXn548fP16qAAAAzo/hnimUUrW1tVKFUVRfXy8lAAAAb4vhnkHq6+tN05QqjIpgMMjZSgAA4GIw3DMI2zGJamtr+akJAABcDIZ7Zpk5cyZPUU08XdenT58uVQAAAO+EDZdZcnNzq6urpQpxNm3atJycHKkCAAB4Jwz3jDN37lxedE8ky7Jmz54tVQAAAAIGXMbJy8vjtI1EmjFjRlZWllQBAAAIGO6ZaPbs2cFgUKoQB6FQaObMmVIFAAAgY7hnomAwOGvWLKlCHDQ0NFiWJVUAAAAyhnuGqq+vHzt2rFThopSUlNTV1UkVAADABWG4Zyhd15csWaKUkkKMkK7rixcvlioAAIALxXDPXOPGjauvr5cqjNAll1zC7zQAAEAcMdwz2rx58/Lz86UKwzZmzJg5c+ZIFQAAwDAw3DOaYRhLlizhtu7xZZrmypUr+X8VAADEF9si05WWljY0NEgVhmHBggUFBQVSBQAAMDwMd2izZs2qqqqSKlyQSZMmTZs2TaoAAACGjeEOTdO0ZcuW5eXlSRUE+fn53EkGAACMEoY7NE3TAoHAypUrTdOUQrytYDC4atUqHrcEAABGCcMdZxUVFXFJ5YgZhnHllVeOGTNGCgEAAEaIlYZzKisrFy5cKFU4jyVLlpSWlkoVAADAyDHc8Sa1tbXcgHy45s2bV1NTI1UAAAAXheGOt2poaJg+fbpU4aw5c+bMmjVLqgAAAC6W8jxPapCJNm3atGvXLqnKdA0NDfyCAgAAJAbDHW9r69at27dvl6rMxWoHAACJxHDHO9m+ffvWrVulKuMopebPnz9z5kwpBAAAiBuGOwT79u1bv36967pSmClM01y2bNnEiROlEAAAIJ4Y7pC1tbW9+OKL4XBYCv0vKytr1apVxcXFUggAABBnDHdckP7+/ueff76np0cK/aywsPDKK6/Mzc2VQgAAgPhjuONCxWKxdevWHThwQAr9qa6ubsGCBYZhSCEAAMCoYLhjeJqbmzds2BCLxaTQPwKBwOLFi6urq6UQAABgFDHcMWx9fX0vv/xyR0eHFPpBSUnJ8uXLOT0GAAAkHcMdI+F53o4dO7Zv327bttSmq0AgMG/evLq6OikEAABIBIY7Rq6/v3/jxo1HjhyRwvRTXV19+eWXZ2VlSSEAAECCMNxxsVpbWzdu3NjX1yeF6WHs2LGXXnppZWWlFAIAACQUwx1x4Lru3r17GxsbBwcHpTZ15ebmzpkzZ8qUKUopqQUAAEg0hjvixnGcpqamxsbGtHtUUygUmj17dl1dna7rUgsAAJAcDHfEmW3b+/bta2pq6u3tldrkKywsrK+vr6mp4QbtAAAgxTHcMVqOHTu2Z8+eo0ePpuDXmFKqsrJyxowZ48ePl1oAAICUwHDH6Orv729paTl06FBXV5fUJkJxcXFNTU1NTQ13jAEAAOmF4Y4E6e3tPXjw4KFDh7q7u6U2zpRSRUVFlZWVkydPzs/Pl3IAAIBUxHBHog0ODp74i/7+fikfuZycnPLy8oqKivLy8mAwKOUAAAApjeGOZOrv7+/s7Ozq6uru7u7q6urv7x/xF6RSKicnp+hvcDIMAADwE4Y7Uoht2wMDA4ODg2f+HBwcjMVizt9QSpmmaVmWaZqmaYZCoZycnJycnNzc3JycHG7mCAAAfIzhDgAAAKQBXqEEAAAA0gDDHQAAAEgDDHcAAAAgDTDcAQAAgDTAcAcAAADSAMMdAAAASAMMdwAAACANMNwBAACANMBwBwAAANIAwx0AAABIAwx3AAAAIA0w3AEAAIA0wHAHAAAA0gDDHQAAAEgDDHcAAAAgDTDcAQAAgDTAcAcAAADSAMMdAAAASAMMdwAAACANMNwBAACANMBwBwAAANIAwx0AAABIAwx3AAAAIA0w3AEAAIA0wHAHAAAA0gDDHQAAAEgDDHcAAAAgDTDcAQAAgDTAcAcAAADSAMMdAAAASAMMdwAAACANMNwBAACANMBwBwAAANLA/wcdort7PjMg5QAAAABJRU5ErkJggg==;" parent="1" vertex="1">
          <mxGeometry x="250" y="220" width="85" height="85" as="geometry" />
        </mxCell>
        <mxCell id="q1QQXYPJhSpeKHFB5yfB-1" value="Amazon SageMaker" style="sketch=0;outlineConnect=0;fontColor=#232F3E;gradientColor=none;strokeColor=#ffffff;fillColor=#232F3E;dashed=0;verticalLabelPosition=middle;verticalAlign=bottom;align=center;html=1;whiteSpace=wrap;fontSize=10;fontStyle=1;spacing=3;shape=mxgraph.aws4.productIcon;prIcon=mxgraph.aws4.sagemaker;" vertex="1" parent="1">
          <mxGeometry x="30" y="220" width="80" height="110" as="geometry" />
        </mxCell>
        <mxCell id="q1QQXYPJhSpeKHFB5yfB-2" value="" style="outlineConnect=0;dashed=0;verticalLabelPosition=bottom;verticalAlign=top;align=center;html=1;shape=mxgraph.aws3.s3;fillColor=#E05243;gradientColor=none;" vertex="1" parent="1">
          <mxGeometry x="440" y="97" width="76.5" height="93" as="geometry" />
        </mxCell>
        <mxCell id="q1QQXYPJhSpeKHFB5yfB-3" value="" style="outlineConnect=0;dashed=0;verticalLabelPosition=bottom;verticalAlign=top;align=center;html=1;shape=mxgraph.aws3.rekognition;fillColor=#2E73B8;gradientColor=none;" vertex="1" parent="1">
          <mxGeometry x="440" y="420" width="76.5" height="93" as="geometry" />
        </mxCell>
        <mxCell id="q1QQXYPJhSpeKHFB5yfB-5" value="S3" style="text;html=1;strokeColor=none;fillColor=none;align=center;verticalAlign=middle;whiteSpace=wrap;rounded=0;" vertex="1" parent="1">
          <mxGeometry x="448.25" y="67" width="60" height="30" as="geometry" />
        </mxCell>
        <mxCell id="q1QQXYPJhSpeKHFB5yfB-6" value="AWS Rekognition" style="text;html=1;strokeColor=none;fillColor=none;align=center;verticalAlign=middle;whiteSpace=wrap;rounded=0;" vertex="1" parent="1">
          <mxGeometry x="450" y="520" width="60" height="30" as="geometry" />
        </mxCell>
      </root>
    </mxGraphModel>
  </diagram>
</mxfile>
